<svg width="101" height="45" viewBox="0 0 101 45" fill="none" xmlns="http://www.w3.org/2000/svg">
<path d="M9.492 10.2828L10.7172 10.2828L10.7172 11.6431L11.1706 11.6431L11.1706 10.2828L12.4247 10.2828L12.4247 9.82941L11.1706 9.82941L11.1706 8.47882L10.7172 8.47882L10.7172 9.82941L9.492 9.82941L9.492 10.2828ZM12.4569 7.10894L14.5214 7.10894L14.5214 12L15.023 12L15.023 6.66518L12.4569 6.66518L12.4569 7.10894ZM22.7194 8.92259L22.7194 7.10894L22.2274 6.66518L18.4168 6.66518L18.4168 7.10894L22.2274 7.10894L22.2274 8.58494L18.33 9.59788L18.33 11.5562L18.8316 12L22.6326 12L22.6326 11.5562L18.8316 11.5562L18.8316 9.93553L22.7194 8.92259ZM28.193 8.92259L28.193 7.10894L27.701 6.66518L23.8904 6.66518L23.8904 7.10894L27.701 7.10894L27.701 8.58494L23.8036 9.59788L23.8036 11.5562L24.3052 12L28.1061 12L28.1061 11.5562L24.3052 11.5562L24.3052 9.93553L28.193 8.92259ZM29.1131 7.10894L31.1776 7.10894L31.1776 12L31.6793 12L31.6793 6.66518L29.1131 6.66518L29.1131 7.10894ZM35.3625 6.66518L34.9862 6.99318L34.9862 9.12518L35.4879 9.56894L38.8836 9.56894L38.8836 11.5562L35.102 11.5562L35.102 12L38.8836 12L39.3853 11.5562L39.3853 6.99318L39.0091 6.66518L35.3625 6.66518ZM35.4879 7.10894L38.8836 7.10894L38.8836 9.12518L35.4879 9.12518L35.4879 7.10894ZM44.8586 8.92259L44.8586 7.10894L44.3666 6.66518L40.5561 6.66518L40.5561 7.10894L44.3666 7.10894L44.3666 8.58494L40.4692 9.59788L40.4692 11.5562L40.9709 12L44.7718 12L44.7718 11.5562L40.9709 11.5562L40.9709 9.93553L44.8586 8.92259ZM45.9428 11.672L46.319 12L49.956 12L50.3322 11.672L50.3322 6.99318L49.956 6.66518L46.319 6.66518L45.9428 6.99318L45.9428 8.4113L46.4445 8.4113L46.4445 7.10894L49.8306 7.10894L49.8306 9.048L47.66 9.048L47.66 9.50141L49.8306 9.50141L49.8306 11.5466L46.4445 11.5466L46.4445 10.2925L45.9428 10.2925L45.9428 11.672ZM51.4164 6.67483L51.4164 8.83577L52.8345 10.0706L55.3041 10.0706L55.3041 12L55.8154 12L55.8154 6.66518L55.3041 6.66518L55.3041 9.62683L53.0371 9.62683L51.918 8.65247L51.918 6.67483L51.4164 6.67483ZM60.6231 6.66518L57.266 6.66518L56.8994 6.99318L56.8994 11.672L57.266 12L60.6231 12L60.9994 11.672L60.9994 6.99318L60.6231 6.66518ZM57.401 11.5562L57.401 7.10894L60.4977 7.10894L60.4977 11.5562L57.401 11.5562ZM62.0809 11.672L62.4571 12L66.0941 12L66.4703 11.672L66.4703 6.99318L66.0941 6.66518L62.4571 6.66518L62.0809 6.99318L62.0809 8.4113L62.5826 8.4113L62.5826 7.10894L65.9687 7.10894L65.9687 9.048L63.7981 9.048L63.7981 9.50141L65.9687 9.50141L65.9687 11.5466L62.5826 11.5466L62.5826 10.2925L62.0809 10.2925L62.0809 11.672ZM67.5545 6.67483L67.5545 8.83577L68.9726 10.0706L71.4422 10.0706L71.4422 12L71.9535 12L71.9535 6.66518L71.4422 6.66518L71.4422 9.62683L69.1752 9.62683L68.0561 8.65247L68.0561 6.67483L67.5545 6.67483ZM73.0375 11.672L73.4137 12L77.0506 12L77.4269 11.672L77.4269 6.99318L77.0506 6.66518L73.4137 6.66518L73.0375 6.99318L73.0375 8.4113L73.5391 8.4113L73.5391 7.10894L76.9252 7.10894L76.9252 9.048L74.7546 9.048L74.7546 9.50142L76.9252 9.50142L76.9252 11.5466L73.5391 11.5466L73.5391 10.2925L73.0375 10.2925L73.0375 11.672ZM78.5111 6.67483L78.5111 8.83577L79.9292 10.0706L82.3988 10.0706L82.3988 12L82.9101 12L82.9101 6.66518L82.3988 6.66518L82.3988 9.62683L80.1318 9.62683L79.0127 8.65247L79.0127 6.67483L78.5111 6.67483ZM87.8915 9.49177L87.8915 11.5562L84.4957 11.5562L84.4957 10.2442L83.994 10.2442L83.994 11.672L84.3703 12L87.8915 12L88.3931 11.5562L88.3931 9.49177L87.8915 9.048L84.4957 9.048L84.4957 7.10895L88.2966 7.10895L88.2966 6.66518L84.3703 6.66518L83.994 6.99318L83.994 9.49177L87.8915 9.49177Z" fill="white"/>
<g clip-path="url(#clip0_1808_434)">
<path d="M7.32171e-07 31.1701L0 44.3301L0.53 44.3301L1.06 44.3301L1.06 31.1701L1.06 18.0001L0.530001 18.0001L1.4649e-06 18.0001L7.32171e-07 31.1701Z" fill="white"/>
<path d="M2.11914 31.17C2.11914 43.69 2.12914 44.34 2.26914 44.33C2.41914 44.32 2.42914 43.65 2.42914 31.17C2.42914 18.69 2.41914 18.03 2.27914 18.01C2.12914 18 2.11914 18.65 2.11914 31.17Z" fill="white"/>
<path d="M4.15039 31.1701C4.15039 44.3001 4.15039 44.3301 4.33039 44.3301C4.51039 44.3301 4.51039 44.3001 4.51039 31.1701C4.51039 18.0401 4.51039 18.0101 4.33039 18.0101C4.15039 18.0101 4.15039 18.0401 4.15039 31.1701Z" fill="white"/>
<path d="M7.66992 31.1701L7.66992 44.3301L8.85992 44.3301L10.0499 44.3301L10.0499 31.1701L10.0499 18.0001L8.86992 18.0001L7.66992 18.0001L7.66992 31.1701Z" fill="white"/>
<path d="M11.1094 31.1701C11.1094 44.3001 11.1094 44.3301 11.2894 44.3301C11.4694 44.3301 11.4694 44.3001 11.4694 31.1701C11.4694 18.0401 11.4694 18.0101 11.2894 18.0101C11.1094 18.0101 11.1094 18.0401 11.1094 31.1701Z" fill="white"/>
<path d="M12.5293 31.1701L12.5293 44.3301L13.4093 44.3301L14.2893 44.3301L14.2893 31.1701L14.2893 18.0001L13.4093 18.0001L12.5293 18.0001L12.5293 31.1701Z" fill="white"/>
<path d="M15.3496 31.1701L15.3496 44.3301L16.1896 44.3301L17.0296 44.3301L17.0296 31.1701L17.0296 18.0001L16.1896 18.0001L15.3496 18.0001L15.3496 31.1701Z" fill="white"/>
<path d="M18.0801 31.1701C18.0801 44.3001 18.0801 44.3301 18.2601 44.3301C18.4401 44.3301 18.4401 44.3001 18.4401 31.1701C18.4401 18.0401 18.4401 18.0101 18.2601 18.0101C18.0801 18.0001 18.0801 18.0401 18.0801 31.1701Z" fill="white"/>
<path d="M20.8203 31.1699L20.8203 44.3398L21.3803 44.3298L21.9303 44.3199L21.9303 31.1798L21.9303 18.0398L21.3803 18.0298L20.8203 18.0199L20.8203 31.1699Z" fill="white"/>
<path d="M22.9395 31.1701C22.9395 44.3001 22.9395 44.3301 23.1195 44.3301C23.2995 44.3301 23.2995 44.3001 23.2995 31.1701C23.2995 18.0401 23.2995 18.0101 23.1195 18.0101C22.9395 18.0001 22.9395 18.0401 22.9395 31.1701Z" fill="white"/>
<path d="M26.4205 18.0599C26.3905 18.0899 26.3805 24.0099 26.3905 31.2199L26.4205 44.3199L26.9305 44.3298L27.4305 44.3398L27.4305 31.1699L27.4305 17.9999L26.9405 17.9999C26.6405 17.9999 26.4505 18.0299 26.4205 18.0599Z" fill="white"/>
<path d="M28.4902 31.1701C28.4902 44.3001 28.4902 44.3301 28.6702 44.3301C28.8502 44.3301 28.8502 44.3001 28.8502 31.1701C28.8502 18.0401 28.8502 18.0101 28.6702 18.0101C28.4902 18.0101 28.4902 18.0401 28.4902 31.1701Z" fill="white"/>
<path d="M30.6094 31.1701L30.6094 44.3301L31.0994 44.3301L31.5894 44.3301L31.5894 31.1701L31.5894 18.0001L31.0994 18.0001L30.6094 18.0001L30.6094 31.1701Z" fill="white"/>
<path d="M34.7598 31.1701C34.7598 44.3001 34.7598 44.3301 34.9398 44.3301C35.1198 44.3301 35.1198 44.3001 35.1198 31.1701C35.1198 18.0401 35.1198 18.0101 34.9398 18.0101C34.7598 18.0001 34.7598 18.0401 34.7598 31.1701Z" fill="white"/>
<path d="M36.8691 31.17C36.8691 43.69 36.8791 44.34 37.0291 44.33C37.1691 44.32 37.1791 43.65 37.1791 31.17C37.1791 18.69 37.1691 18.03 37.0291 18.01C36.8791 18 36.8691 18.65 36.8691 31.17Z" fill="white"/>
<path d="M38.2408 18.06C38.2108 18.09 38.2008 24.01 38.2108 31.22C38.2408 43.65 38.2508 44.32 38.4008 44.33C38.5408 44.34 38.5508 43.69 38.5508 31.18C38.5508 19.39 38.5308 18.01 38.4208 18.01C38.3408 18 38.2608 18.03 38.2408 18.06Z" fill="white"/>
<path d="M41.7207 31.1701L41.7207 44.3301L42.2507 44.3301L42.7807 44.3301L42.7807 31.1701L42.7807 18.0001L42.2507 18.0001L41.7207 18.0001L41.7207 31.1701Z" fill="white"/>
<path d="M43.75 31.1701C43.75 44.3001 43.75 44.3301 43.93 44.3301C44.11 44.3301 44.11 44.3001 44.11 31.1701C44.11 18.0401 44.11 18.0101 43.93 18.0101C43.75 18.0101 43.75 18.0401 43.75 31.1701Z" fill="white"/>
<path d="M45.8691 31.1701C45.8691 44.3001 45.8691 44.3301 46.0491 44.3301C46.2291 44.3301 46.2291 44.3001 46.2291 31.1701C46.2291 18.0401 46.2291 18.0101 46.0491 18.0101C45.8691 18.0001 45.8691 18.0401 45.8691 31.1701Z" fill="white"/>
<path d="M47.2793 31.1701C47.2793 44.3001 47.2793 44.3301 47.4593 44.3301C47.6393 44.3301 47.6393 44.3001 47.6393 31.1701C47.6393 18.0401 47.6393 18.0101 47.4593 18.0101C47.2793 18.0001 47.2793 18.0401 47.2793 31.1701Z" fill="white"/>
<path d="M49.3105 31.1701L49.3105 44.3301L50.5405 44.3301L51.7705 44.3301L51.7705 31.1701L51.7705 18.0001L50.5405 18.0001L49.3105 18.0001L49.3105 31.1701Z" fill="white"/>
<path d="M53.5508 31.17C53.5508 43.69 53.5608 44.34 53.7108 44.33C53.8508 44.32 53.8608 43.65 53.8608 31.17C53.8608 18.69 53.8508 18.03 53.7108 18.01C53.5508 18 53.5508 18.65 53.5508 31.17Z" fill="white"/>
<path d="M54.9609 31.1701L54.9609 44.3301L55.4509 44.3301L55.9409 44.3301L55.9409 31.1701L55.9409 18.0001L55.4509 18.0001L54.9609 18.0001L54.9609 31.1701Z" fill="white"/>
<path d="M57.6895 31.1701C57.6895 44.3001 57.6895 44.3301 57.8695 44.3301C58.0495 44.3301 58.0495 44.3001 58.0495 31.1701C58.0495 18.0401 58.0495 18.0101 57.8695 18.0101C57.6895 18.0101 57.6895 18.0401 57.6895 31.1701Z" fill="white"/>
<path d="M61.1309 31.1701C61.1309 44.3001 61.1309 44.3301 61.3109 44.3301C61.4909 44.3301 61.4909 44.3001 61.4909 31.1701C61.4909 18.0401 61.4909 18.0101 61.3109 18.0101C61.1309 18.0101 61.1309 18.0401 61.1309 31.1701Z" fill="white"/>
<path d="M64.5908 31.16C64.6208 43.65 64.6308 44.32 64.7808 44.33C64.9208 44.34 64.9308 43.69 64.9308 31.18C64.9308 18.04 64.9308 18.01 64.7508 18.01C64.5708 18.01 64.5708 18.03 64.5908 31.16Z" fill="white"/>
<path d="M66.6895 31.1701L66.6895 44.3301L67.2195 44.3301L67.7495 44.3301L67.7495 31.1701L67.7495 18.0001L67.2195 18.0001L66.6895 18.0001L66.6895 31.1701Z" fill="white"/>
<path d="M68.8105 31.1701C68.8105 44.3001 68.8106 44.3301 68.9906 44.3301C69.1706 44.3301 69.1706 44.3001 69.1706 31.1701C69.1706 18.0401 69.1706 18.0101 68.9906 18.0101C68.8106 18.0001 68.8105 18.0401 68.8105 31.1701Z" fill="white"/>
<path d="M72.25 31.1701L72.25 44.3301L72.78 44.3301L73.31 44.3301L73.31 31.1701L73.31 18.0001L72.78 18.0001L72.25 18.0001L72.25 31.1701Z" fill="white"/>
<path d="M74.3594 31.1701C74.3594 44.3001 74.3594 44.3301 74.5394 44.3301C74.7194 44.3301 74.7194 44.3001 74.7194 31.1701C74.7194 18.0401 74.7194 18.0101 74.5394 18.0101C74.3594 18.0001 74.3594 18.0401 74.3594 31.1701Z" fill="white"/>
<path d="M76.44 18.0603C76.41 18.0903 76.4 24.0103 76.41 31.2203C76.44 44.2803 76.44 44.3203 76.61 44.3203C76.79 44.3203 76.79 44.2903 76.79 31.1803C76.79 18.6903 76.78 18.0403 76.63 18.0203C76.55 18.0003 76.46 18.0203 76.44 18.0603Z" fill="white"/>
<path d="M78.5098 31.1701C78.5098 44.3001 78.5098 44.3301 78.6898 44.3301C78.8698 44.3301 78.8698 44.3001 78.8698 31.1701C78.8698 18.0401 78.8698 18.0101 78.6898 18.0101C78.5098 18.0001 78.5098 18.0401 78.5098 31.1701Z" fill="white"/>
<path d="M79.9199 31.1701L79.9199 44.3301L80.4499 44.3301L80.9799 44.3301L80.9799 31.1701L80.9799 18.0001L80.4499 18.0001L79.9199 18.0001L79.9199 31.1701Z" fill="white"/>
<path d="M84.0703 31.1701C84.0703 44.3001 84.0703 44.3301 84.2503 44.3301C84.4303 44.3301 84.4303 44.3001 84.4303 31.1701C84.4303 18.0401 84.4303 18.0101 84.2503 18.0101C84.0703 18.0001 84.0703 18.0401 84.0703 31.1701Z" fill="white"/>
<path d="M85.4805 31.1701L85.4805 44.3301L86.6705 44.3301L87.8605 44.3301L87.8605 31.1701L87.8605 18.0001L86.6705 18.0001L85.4805 18.0001L85.4805 31.1701Z" fill="white"/>
<path d="M88.9199 31.1701L88.9199 44.3301L89.7999 44.3301L90.6799 44.3301L90.6799 31.1701L90.6799 18.0001L89.7999 18.0001L88.9199 18.0001L88.9199 31.1701Z" fill="white"/>
<path d="M91.7107 18.0798C91.6407 18.1698 91.6407 44.1799 91.7107 44.2699C91.7507 44.3199 91.9007 44.3398 92.2807 44.3398L92.8007 44.3398L92.8007 31.1798L92.8007 17.9999L92.2807 17.9999C91.8907 17.9999 91.7507 18.0198 91.7107 18.0798Z" fill="white"/>
<path d="M95.1797 31.1701L95.1797 44.3301L96.0597 44.3301L96.9397 44.3301L96.9397 31.1701L96.9397 18.0001L96.0597 18.0001L95.1797 18.0001L95.1797 31.1701Z" fill="white"/>
<path d="M97.9595 18.06C97.9295 18.09 97.9195 24.01 97.9295 31.22C97.9595 43.65 97.9695 44.32 98.1195 44.33C98.2595 44.34 98.2695 43.69 98.2695 31.18C98.2695 19.39 98.2495 18.01 98.1395 18.01C98.0595 18 97.9795 18.03 97.9595 18.06Z" fill="white"/>
<path d="M99.3301 31.1701L99.3301 44.3301L99.8601 44.3301L100.39 44.3301L100.39 31.1701L100.39 18.0001L99.8601 18.0001L99.3301 18.0001L99.3301 31.1701Z" fill="white"/>
</g>
<defs>
<clipPath id="clip0_1808_434">
<rect width="100.4" height="26.3" fill="white" transform="translate(0 18)"/>
</clipPath>
</defs>
</svg>
