<svg width="82" height="36" viewBox="0 0 82 36" fill="none" xmlns="http://www.w3.org/2000/svg">
<path d="M7.0259 26.9269L7.0259 26.0853L8.37714 26.0853L8.37714 25.7301L6.93325 25.7301L6.63212 25.9926L6.63212 26.9269L6.20744 26.9269L6.20744 27.2821L6.63212 27.2821L6.63211 30L7.0259 30L7.0259 27.2821L8.37714 27.2821L8.37714 26.9269L7.0259 26.9269ZM16.5217 28.4094L16.5217 27.1894L16.2206 26.9269L13.8965 26.9269L13.5954 27.1894L13.5954 29.3437L14.2826 30L16.3519 30L16.3519 29.6448L14.4524 29.6448L13.9814 29.1738L13.9814 28.6565L16.2206 28.6565L16.5217 28.4094ZM16.1202 28.3399L13.9969 28.3399L13.9969 27.2821L16.1202 27.2821L16.1202 28.3399ZM22.2645 30L24.0481 30L24.5037 29.6834L24.5037 29.7143L24.5732 30L24.9052 30L24.9052 27.1894L24.604 26.9269L22.11 26.9269L22.11 27.2821L24.5037 27.2821L24.5037 28.2009L22.2645 28.2009L21.9711 28.4712L21.9711 29.7298L22.2645 30ZM22.3648 28.5252L24.5037 28.5252L24.5037 29.2819L24.0018 29.6371L22.3648 29.6371L22.3648 28.5252ZM31.188 26.9269L31.188 26.3015L31.0645 26.147L30.7865 26.147L30.7865 26.9269L30.3618 26.9269L30.3618 27.2821L30.7865 27.2821L30.7865 29.7375L31.0876 30L32.4775 30L32.4775 29.6448L31.188 29.6448L31.188 27.2821L32.4775 27.2821L32.4775 26.9269L31.188 26.9269ZM38.0589 26.9269L38.0589 29.7298L38.36 30L40.1282 30L40.5915 29.6525L40.5915 29.722L40.6764 30L40.9853 30L40.9853 26.9269L40.5915 26.9269L40.5915 29.2588L40.0742 29.6371L38.4604 29.6371L38.4604 26.9269L38.0589 26.9269ZM46.5703 30L46.9718 30L46.9718 27.7222L47.5046 27.2821L48.1995 27.2821L48.1995 26.9269L47.4506 26.9269L46.9718 27.3207L46.9718 27.0813L46.8483 26.9269L46.5703 26.9269L46.5703 30ZM54.0581 30L54.0581 26.9269L53.6566 26.9269L53.6566 30L54.0581 30ZM53.6566 25.7301L53.6566 26.4791L54.0581 26.4791L54.0581 25.8845L53.9269 25.7301L53.6566 25.7301ZM59.6345 30L60.036 30L60.036 27.699L60.5147 27.2898L62.1671 27.2898L62.1671 30L62.5609 30L62.5609 27.1971L62.2675 26.9269L60.4607 26.9269L60.036 27.2898L60.036 27.2049L59.9433 26.9269L59.6345 26.9269L59.6345 30ZM68.4471 30L70.1998 30L70.6708 29.6757L70.6708 30.471L70.3465 30.7799L68.3312 30.7799L68.3312 31.135L70.5473 31.135L71.0723 30.6486L71.0723 26.9269L68.4471 26.9269L68.1459 27.1894L68.1459 29.7375L68.4471 30ZM70.6708 27.2898L70.6708 29.2742L70.138 29.6448L68.5474 29.6448L68.5474 27.2898L70.6708 27.2898ZM27.2609 32.9269L27.2609 33.4133L28.3882 36L28.9828 36L29.8785 33.8843L30.805 36L31.4073 36L32.496 33.4133L32.496 32.9269L32.0945 32.9269L32.0945 33.3979L31.1757 35.6139L31.029 35.6139L30.0792 33.3979L30.0792 32.9269L29.6777 32.9269L29.6777 33.3979L28.7512 35.6139L28.6122 35.6139L27.6624 33.3979L27.6624 32.9269L27.2609 32.9269ZM38.4001 36L38.4001 32.9269L37.9986 32.9269L37.9986 36L38.4001 36ZM37.9986 31.7301L37.9986 32.4791L38.4001 32.4791L38.4001 31.8845L38.2688 31.7301L37.9986 31.7301ZM44.8026 32.9269L44.8026 32.3015L44.6791 32.147L44.4011 32.147L44.4011 32.9269L43.9764 32.9269L43.9764 33.2821L44.4011 33.2821L44.4011 35.7375L44.7022 36L46.0921 36L46.0921 35.6448L44.8026 35.6448L44.8026 33.2821L46.0921 33.2821L46.0921 32.9269L44.8026 32.9269ZM51.6735 36L52.075 36L52.075 33.7531L52.6155 33.2898L54.2679 33.2898L54.2679 36L54.6617 36L54.6617 33.1971L54.3683 32.9269L52.5615 32.9269L52.075 33.3361L52.075 31.8922L51.9515 31.7301L51.6735 31.7301L51.6735 36Z" fill="white"/>
<path d="M7.0259 26.9269L6.89722 26.9269L6.89722 27.0556L7.0259 27.0556L7.0259 26.9269ZM7.0259 26.0853L7.0259 25.9566L6.89722 25.9566L6.89722 26.0853L7.0259 26.0853ZM8.37714 26.0853L8.37714 26.214L8.50583 26.214L8.50583 26.0853L8.37714 26.0853ZM8.37714 25.7301L8.50583 25.7301L8.50583 25.6014L8.37714 25.6014L8.37714 25.7301ZM6.93325 25.7301L6.93325 25.6014L6.88503 25.6014L6.84868 25.6331L6.93325 25.7301ZM6.63211 25.9926L6.54755 25.8956L6.50343 25.9341L6.50343 25.9926L6.63211 25.9926ZM6.63211 26.9269L6.63211 27.0556L6.7608 27.0556L6.7608 26.9269L6.63211 26.9269ZM6.20744 26.9269L6.20744 26.7982L6.07875 26.7982L6.07875 26.9269L6.20744 26.9269ZM6.20744 27.2821L6.07875 27.2821L6.07875 27.4108L6.20744 27.4108L6.20744 27.2821ZM6.63211 27.2821L6.7608 27.2821L6.7608 27.1534L6.63211 27.1534L6.63211 27.2821ZM6.63211 30L6.50343 30L6.50343 30.1287L6.63211 30.1287L6.63211 30ZM7.0259 30L7.0259 30.1287L7.15459 30.1287L7.15459 30L7.0259 30ZM7.0259 27.2821L7.0259 27.1534L6.89722 27.1534L6.89722 27.2821L7.0259 27.2821ZM8.37714 27.2821L8.37714 27.4108L8.50583 27.4108L8.50583 27.2821L8.37714 27.2821ZM8.37714 26.9269L8.50583 26.9269L8.50583 26.7982L8.37714 26.7982L8.37714 26.9269ZM7.15459 26.9269L7.15459 26.0853L6.89722 26.0853L6.89722 26.9269L7.15459 26.9269ZM7.0259 26.214L8.37714 26.214L8.37714 25.9566L7.0259 25.9566L7.0259 26.214ZM8.50583 26.0853L8.50583 25.7301L8.24845 25.7301L8.24845 26.0853L8.50583 26.0853ZM8.37714 25.6014L6.93325 25.6014L6.93325 25.8588L8.37714 25.8588L8.37714 25.6014ZM6.84868 25.6331L6.54755 25.8956L6.71668 26.0896L7.01781 25.8271L6.84868 25.6331ZM6.50343 25.9926L6.50343 26.9269L6.7608 26.9269L6.7608 25.9926L6.50343 25.9926ZM6.63211 26.7982L6.20744 26.7982L6.20744 27.0556L6.63211 27.0556L6.63211 26.7982ZM6.07875 26.9269L6.07875 27.2821L6.33613 27.2821L6.33613 26.9269L6.07875 26.9269ZM6.20744 27.4108L6.63211 27.4108L6.63211 27.1534L6.20744 27.1534L6.20744 27.4108ZM6.50343 27.2821L6.50343 30L6.7608 30L6.7608 27.2821L6.50343 27.2821ZM6.63211 30.1287L7.0259 30.1287L7.0259 29.8713L6.63211 29.8713L6.63211 30.1287ZM7.15459 30L7.15459 27.2821L6.89722 27.2821L6.89722 30L7.15459 30ZM7.0259 27.4108L8.37714 27.4108L8.37714 27.1534L7.0259 27.1534L7.0259 27.4108ZM8.50583 27.2821L8.50583 26.9269L8.24845 26.9269L8.24845 27.2821L8.50583 27.2821ZM8.37714 26.7982L7.0259 26.7982L7.0259 27.0556L8.37714 27.0556L8.37714 26.7982ZM16.5217 28.4094L16.6034 28.5089L16.6504 28.4703L16.6504 28.4094L16.5217 28.4094ZM16.5217 27.1894L16.6504 27.1894L16.6504 27.1309L16.6063 27.0924L16.5217 27.1894ZM16.2206 26.9269L16.3052 26.8299L16.2688 26.7982L16.2206 26.7982L16.2206 26.9269ZM13.8965 26.9269L13.8965 26.7982L13.8483 26.7982L13.8119 26.8299L13.8965 26.9269ZM13.5954 27.1894L13.5108 27.0924L13.4667 27.1309L13.4667 27.1894L13.5954 27.1894ZM13.5954 29.3437L13.4667 29.3437L13.4667 29.3987L13.5065 29.4367L13.5954 29.3437ZM14.2826 30L14.1937 30.0931L14.231 30.1287L14.2826 30.1287L14.2826 30ZM16.3519 30L16.3519 30.1287L16.4806 30.1287L16.4806 30L16.3519 30ZM16.3519 29.6448L16.4806 29.6448L16.4806 29.5161L16.3519 29.5161L16.3519 29.6448ZM14.4524 29.6448L14.3614 29.7358L14.3991 29.7735L14.4524 29.7735L14.4524 29.6448ZM13.9814 29.1738L13.8527 29.1738L13.8527 29.2271L13.8904 29.2648L13.9814 29.1738ZM13.9814 28.6565L13.9814 28.5278L13.8527 28.5278L13.8527 28.6565L13.9814 28.6565ZM16.2206 28.6565L16.2206 28.7852L16.2667 28.7852L16.3022 28.756L16.2206 28.6565ZM16.1202 28.3399L16.1202 28.4686L16.2489 28.4686L16.2489 28.3399L16.1202 28.3399ZM13.9969 28.3399L13.8682 28.3399L13.8682 28.4686L13.9969 28.4686L13.9969 28.3399ZM13.9969 27.2821L13.9969 27.1534L13.8682 27.1534L13.8682 27.2821L13.9969 27.2821ZM16.1202 27.2821L16.2489 27.2821L16.2489 27.1534L16.1202 27.1534L16.1202 27.2821ZM16.6504 28.4094L16.6504 27.1894L16.3931 27.1894L16.3931 28.4094L16.6504 28.4094ZM16.6063 27.0924L16.3052 26.8299L16.136 27.0239L16.4372 27.2864L16.6063 27.0924ZM16.2206 26.7982L13.8965 26.7982L13.8965 27.0556L16.2206 27.0556L16.2206 26.7982ZM13.8119 26.8299L13.5108 27.0924L13.6799 27.2864L13.9811 27.0239L13.8119 26.8299ZM13.4667 27.1894L13.4667 29.3437L13.724 29.3437L13.724 27.1894L13.4667 27.1894ZM13.5065 29.4367L14.1937 30.0931L14.3714 29.9069L13.6842 29.2506L13.5065 29.4367ZM14.2826 30.1287L16.3519 30.1287L16.3519 29.8713L14.2826 29.8713L14.2826 30.1287ZM16.4806 30L16.4806 29.6448L16.2232 29.6448L16.2232 30L16.4806 30ZM16.3519 29.5161L14.4524 29.5161L14.4524 29.7735L16.3519 29.7735L16.3519 29.5161ZM14.5434 29.5538L14.0724 29.0828L13.8904 29.2648L14.3614 29.7358L14.5434 29.5538ZM14.1101 29.1738L14.1101 28.6565L13.8527 28.6565L13.8527 29.1738L14.1101 29.1738ZM13.9814 28.7852L16.2206 28.7852L16.2206 28.5278L13.9814 28.5278L13.9814 28.7852ZM16.3022 28.756L16.6034 28.5089L16.4401 28.3099L16.139 28.557L16.3022 28.756ZM16.1202 28.2112L13.9969 28.2112L13.9969 28.4686L16.1202 28.4686L16.1202 28.2112ZM14.1256 28.3399L14.1256 27.2821L13.8682 27.2821L13.8682 28.3399L14.1256 28.3399ZM13.9969 27.4108L16.1202 27.4108L16.1202 27.1534L13.9969 27.1534L13.9969 27.4108ZM15.9915 27.2821L15.9915 28.3399L16.2489 28.3399L16.2489 27.2821L15.9915 27.2821ZM22.2645 30L22.1773 30.0947L22.2142 30.1287L22.2645 30.1287L22.2645 30ZM24.0481 30L24.0481 30.1287L24.0884 30.1287L24.1215 30.1057L24.0481 30ZM24.5037 29.6834L24.6324 29.6834L24.6324 29.4373L24.4302 29.5777L24.5037 29.6834ZM24.5037 29.7143L24.375 29.7143L24.375 29.7297L24.3786 29.7447L24.5037 29.7143ZM24.5732 30L24.4481 30.0304L24.472 30.1287L24.5732 30.1287L24.5732 30ZM24.9052 30L24.9052 30.1287L25.0339 30.1287L25.0339 30L24.9052 30ZM24.9052 27.1894L25.0339 27.1894L25.0339 27.1309L24.9897 27.0924L24.9052 27.1894ZM24.604 26.9269L24.6886 26.8299L24.6523 26.7982L24.604 26.7982L24.604 26.9269ZM22.11 26.9269L22.11 26.7982L21.9814 26.7982L21.9814 26.9269L22.11 26.9269ZM22.11 27.2821L21.9813 27.2821L21.9813 27.4108L22.11 27.4108L22.11 27.2821ZM24.5037 27.2821L24.6324 27.2821L24.6324 27.1534L24.5037 27.1534L24.5037 27.2821ZM24.5037 28.2009L24.5037 28.3296L24.6324 28.3296L24.6324 28.2009L24.5037 28.2009ZM22.2645 28.2009L22.2645 28.0722L22.2142 28.0722L22.1773 28.1063L22.2645 28.2009ZM21.9711 28.4712L21.8839 28.3765L21.8424 28.4147L21.8424 28.4712L21.9711 28.4712ZM21.9711 29.7298L21.8424 29.7298L21.8424 29.7862L21.8839 29.8244L21.9711 29.7298ZM22.3648 28.5252L22.3648 28.3965L22.2362 28.3965L22.2362 28.5252L22.3648 28.5252ZM24.5037 28.5252L24.6324 28.5252L24.6324 28.3965L24.5037 28.3965L24.5037 28.5252ZM24.5037 29.2819L24.578 29.387L24.6324 29.3485L24.6324 29.2819L24.5037 29.2819ZM24.0018 29.6371L24.0018 29.7658L24.0427 29.7658L24.0761 29.7421L24.0018 29.6371ZM22.3648 29.6371L22.2362 29.6371L22.2362 29.7658L22.3648 29.7658L22.3648 29.6371ZM22.2645 30.1287L24.0481 30.1287L24.0481 29.8713L22.2645 29.8713L22.2645 30.1287ZM24.1215 30.1057L24.5771 29.7891L24.4302 29.5777L23.9747 29.8943L24.1215 30.1057ZM24.375 29.6834L24.375 29.7143L24.6324 29.7143L24.6324 29.6834L24.375 29.6834ZM24.3786 29.7447L24.4481 30.0304L24.6982 29.9696L24.6287 29.6839L24.3786 29.7447ZM24.5732 30.1287L24.9052 30.1287L24.9052 29.8713L24.5732 29.8713L24.5732 30.1287ZM25.0339 30L25.0339 27.1894L24.7765 27.1894L24.7765 30L25.0339 30ZM24.9897 27.0924L24.6886 26.8299L24.5195 27.0239L24.8206 27.2864L24.9897 27.0924ZM24.604 26.7982L22.11 26.7982L22.11 27.0556L24.604 27.0556L24.604 26.7982ZM21.9814 26.9269L21.9813 27.2821L22.2387 27.2821L22.2387 26.9269L21.9814 26.9269ZM22.11 27.4108L24.5037 27.4108L24.5037 27.1534L22.11 27.1534L22.11 27.4108ZM24.375 27.2821L24.375 28.2009L24.6324 28.2009L24.6324 27.2821L24.375 27.2821ZM24.5037 28.0722L22.2645 28.0722L22.2645 28.3296L24.5037 28.3296L24.5037 28.0722ZM22.1773 28.1063L21.8839 28.3765L22.0582 28.5658L22.3517 28.2956L22.1773 28.1063ZM21.8424 28.4712L21.8424 29.7298L22.0997 29.7298L22.0997 28.4712L21.8424 28.4712ZM21.8839 29.8244L22.1773 30.0947L22.3517 29.9053L22.0582 29.6351L21.8839 29.8244ZM22.3648 28.6539L24.5037 28.6539L24.5037 28.3965L22.3648 28.3965L22.3648 28.6539ZM24.375 28.5252L24.375 29.2819L24.6324 29.2819L24.6324 28.5252L24.375 28.5252ZM24.4293 29.1769L23.9274 29.5321L24.0761 29.7421L24.578 29.387L24.4293 29.1769ZM24.0018 29.5084L22.3648 29.5084L22.3648 29.7658L24.0018 29.7658L24.0018 29.5084ZM22.4935 29.6371L22.4935 28.5252L22.2362 28.5252L22.2362 29.6371L22.4935 29.6371ZM31.188 26.9269L31.0593 26.9269L31.0593 27.0556L31.188 27.0556L31.188 26.9269ZM31.188 26.3015L31.3167 26.3015L31.3167 26.2563L31.2885 26.2211L31.188 26.3015ZM31.0645 26.147L31.165 26.0666L31.1263 26.0184L31.0645 26.0184L31.0645 26.147ZM30.7865 26.147L30.7865 26.0184L30.6578 26.0184L30.6578 26.147L30.7865 26.147ZM30.7865 26.9269L30.7865 27.0556L30.9152 27.0556L30.9152 26.9269L30.7865 26.9269ZM30.3618 26.9269L30.3618 26.7982L30.2332 26.7982L30.2332 26.9269L30.3618 26.9269ZM30.3618 27.2821L30.2332 27.2821L30.2332 27.4108L30.3618 27.4108L30.3618 27.2821ZM30.7865 27.2821L30.9152 27.2821L30.9152 27.1534L30.7865 27.1534L30.7865 27.2821ZM30.7865 29.7375L30.6578 29.7375L30.6578 29.796L30.7019 29.8345L30.7865 29.7375ZM31.0876 30L31.0031 30.097L31.0394 30.1287L31.0876 30.1287L31.0876 30ZM32.4775 30L32.4775 30.1287L32.6062 30.1287L32.6062 30L32.4775 30ZM32.4775 29.6448L32.6062 29.6448L32.6062 29.5161L32.4775 29.5161L32.4775 29.6448ZM31.188 29.6448L31.0593 29.6448L31.0593 29.7735L31.188 29.7735L31.188 29.6448ZM31.188 27.2821L31.188 27.1534L31.0593 27.1534L31.0593 27.2821L31.188 27.2821ZM32.4775 27.2821L32.4775 27.4108L32.6062 27.4108L32.6062 27.2821L32.4775 27.2821ZM32.4775 26.9269L32.6062 26.9269L32.6062 26.7982L32.4775 26.7982L32.4775 26.9269ZM31.3167 26.9269L31.3167 26.3015L31.0593 26.3015L31.0593 26.9269L31.3167 26.9269ZM31.2885 26.2211L31.165 26.0666L30.964 26.2274L31.0875 26.3819L31.2885 26.2211ZM31.0645 26.0184L30.7865 26.0184L30.7865 26.2757L31.0645 26.2757L31.0645 26.0184ZM30.6578 26.147L30.6578 26.9269L30.9152 26.9269L30.9152 26.147L30.6578 26.147ZM30.7865 26.7982L30.3618 26.7982L30.3618 27.0556L30.7865 27.0556L30.7865 26.7982ZM30.2332 26.9269L30.2332 27.2821L30.4905 27.2821L30.4905 26.9269L30.2332 26.9269ZM30.3618 27.4108L30.7865 27.4108L30.7865 27.1534L30.3618 27.1534L30.3618 27.4108ZM30.6578 27.2821L30.6578 29.7375L30.9152 29.7375L30.9152 27.2821L30.6578 27.2821ZM30.7019 29.8345L31.0031 30.097L31.1722 29.903L30.8711 29.6405L30.7019 29.8345ZM31.0876 30.1287L32.4775 30.1287L32.4775 29.8713L31.0876 29.8713L31.0876 30.1287ZM32.6062 30L32.6062 29.6448L32.3488 29.6448L32.3488 30L32.6062 30ZM32.4775 29.5161L31.188 29.5161L31.188 29.7735L32.4775 29.7735L32.4775 29.5161ZM31.3167 29.6448L31.3167 27.2821L31.0593 27.2821L31.0593 29.6448L31.3167 29.6448ZM31.188 27.4108L32.4775 27.4108L32.4775 27.1534L31.188 27.1534L31.188 27.4108ZM32.6062 27.2821L32.6062 26.9269L32.3488 26.9269L32.3488 27.2821L32.6062 27.2821ZM32.4775 26.7982L31.188 26.7982L31.188 27.0556L32.4775 27.0556L32.4775 26.7982ZM38.0589 26.9269L38.0589 26.7982L37.9302 26.7982L37.9302 26.9269L38.0589 26.9269ZM38.0589 29.7298L37.9302 29.7298L37.9302 29.7872L37.973 29.8255L38.0589 29.7298ZM38.36 30L38.2741 30.0958L38.3108 30.1287L38.36 30.1287L38.36 30ZM40.1282 30L40.1282 30.1287L40.1711 30.1287L40.2054 30.103L40.1282 30ZM40.5915 29.6525L40.7202 29.6525L40.7202 29.3952L40.5143 29.5496L40.5915 29.6525ZM40.5915 29.722L40.4628 29.722L40.4628 29.7413L40.4684 29.7596L40.5915 29.722ZM40.6764 30L40.5534 30.0376L40.5812 30.1287L40.6764 30.1287L40.6764 30ZM40.9853 30L40.9853 30.1287L41.114 30.1287L41.114 30L40.9853 30ZM40.9853 26.9269L41.114 26.9269L41.114 26.7982L40.9853 26.7982L40.9853 26.9269ZM40.5915 26.9269L40.5915 26.7982L40.4628 26.7982L40.4628 26.9269L40.5915 26.9269ZM40.5915 29.2588L40.6675 29.3626L40.7202 29.3241L40.7202 29.2588L40.5915 29.2588ZM40.0742 29.6371L40.0742 29.7658L40.1162 29.7658L40.1502 29.741L40.0742 29.6371ZM38.4604 29.6371L38.3317 29.6371L38.3317 29.7658L38.4604 29.7658L38.4604 29.6371ZM38.4604 26.9269L38.5891 26.9269L38.5891 26.7982L38.4604 26.7982L38.4604 26.9269ZM37.9302 26.9269L37.9302 29.7298L38.1876 29.7298L38.1876 26.9269L37.9302 26.9269ZM37.973 29.8255L38.2741 30.0958L38.446 29.9042L38.1449 29.634L37.973 29.8255ZM38.36 30.1287L40.1282 30.1287L40.1282 29.8713L38.36 29.8713L38.36 30.1287ZM40.2054 30.103L40.6687 29.7555L40.5143 29.5496L40.051 29.8971L40.2054 30.103ZM40.4628 29.6525L40.4628 29.722L40.7202 29.722L40.7202 29.6525L40.4628 29.6525ZM40.4684 29.7596L40.5534 30.0376L40.7995 29.9624L40.7146 29.6844L40.4684 29.7596ZM40.6764 30.1287L40.9853 30.1287L40.9853 29.8713L40.6764 29.8713L40.6764 30.1287ZM41.114 30L41.114 26.9269L40.8566 26.9269L40.8566 30L41.114 30ZM40.9853 26.7982L40.5915 26.7982L40.5915 27.0556L40.9853 27.0556L40.9853 26.7982ZM40.4628 26.9269L40.4628 29.2588L40.7202 29.2588L40.7202 26.9269L40.4628 26.9269ZM40.5155 29.1549L39.9982 29.5332L40.1502 29.741L40.6675 29.3626L40.5155 29.1549ZM40.0742 29.5084L38.4604 29.5084L38.4604 29.7658L40.0742 29.7658L40.0742 29.5084ZM38.5891 29.6371L38.5891 26.9269L38.3317 26.9269L38.3317 29.6371L38.5891 29.6371ZM38.4604 26.7982L38.0589 26.7982L38.0589 27.0556L38.4604 27.0556L38.4604 26.7982ZM46.5703 30L46.4416 30L46.4416 30.1287L46.5703 30.1287L46.5703 30ZM46.9718 30L46.9718 30.1287L47.1005 30.1287L47.1005 30L46.9718 30ZM46.9718 27.7222L46.8899 27.623L46.8432 27.6616L46.8432 27.7222L46.9718 27.7222ZM47.5046 27.2821L47.5046 27.1534L47.4583 27.1534L47.4227 27.1829L47.5046 27.2821ZM48.1995 27.2821L48.1995 27.4108L48.3282 27.4108L48.3282 27.2821L48.1995 27.2821ZM48.1995 26.9269L48.3282 26.9269L48.3282 26.7982L48.1995 26.7982L48.1995 26.9269ZM47.4506 26.9269L47.4506 26.7982L47.4044 26.7982L47.3688 26.8275L47.4506 26.9269ZM46.9718 27.3207L46.8432 27.3207L46.8432 27.5932L47.0536 27.4201L46.9718 27.3207ZM46.9718 27.0813L47.1005 27.0813L47.1005 27.0362L47.0723 27.0009L46.9718 27.0813ZM46.8483 26.9269L46.9488 26.8465L46.9102 26.7982L46.8483 26.7982L46.8483 26.9269ZM46.5703 26.9269L46.5703 26.7982L46.4416 26.7982L46.4416 26.9269L46.5703 26.9269ZM46.5703 30.1287L46.9718 30.1287L46.9718 29.8713L46.5703 29.8713L46.5703 30.1287ZM47.1005 30L47.1005 27.7222L46.8432 27.7222L46.8432 30L47.1005 30ZM47.0538 27.8214L47.5866 27.3813L47.4227 27.1829L46.8899 27.623L47.0538 27.8214ZM47.5046 27.4108L48.1995 27.4108L48.1995 27.1534L47.5046 27.1534L47.5046 27.4108ZM48.3282 27.2821L48.3282 26.9269L48.0709 26.9269L48.0709 27.2821L48.3282 27.2821ZM48.1995 26.7982L47.4506 26.7982L47.4506 27.0556L48.1995 27.0556L48.1995 26.7982ZM47.3688 26.8275L46.8901 27.2213L47.0536 27.4201L47.5323 27.0263L47.3688 26.8275ZM47.1005 27.3207L47.1005 27.0813L46.8432 27.0813L46.8432 27.3207L47.1005 27.3207ZM47.0723 27.0009L46.9488 26.8465L46.7478 27.0073L46.8714 27.1617L47.0723 27.0009ZM46.8483 26.7982L46.5703 26.7982L46.5703 27.0556L46.8483 27.0556L46.8483 26.7982ZM46.4416 26.9269L46.4416 30L46.699 30L46.699 26.9269L46.4416 26.9269ZM54.0581 30L54.0581 30.1287L54.1868 30.1287L54.1868 30L54.0581 30ZM54.0581 26.9269L54.1868 26.9269L54.1868 26.7982L54.0581 26.7982L54.0581 26.9269ZM53.6566 26.9269L53.6566 26.7982L53.5279 26.7982L53.5279 26.9269L53.6566 26.9269ZM53.6566 30L53.5279 30L53.5279 30.1287L53.6566 30.1287L53.6566 30ZM53.6566 25.7301L53.6566 25.6014L53.5279 25.6014L53.5279 25.7301L53.6566 25.7301ZM53.6566 26.4791L53.5279 26.4791L53.5279 26.6077L53.6566 26.6077L53.6566 26.4791ZM54.0581 26.4791L54.0581 26.6077L54.1868 26.6077L54.1868 26.4791L54.0581 26.4791ZM54.0581 25.8845L54.1868 25.8845L54.1868 25.8372L54.1562 25.8012L54.0581 25.8845ZM53.9269 25.7301L54.0249 25.6467L53.9864 25.6014L53.9269 25.6014L53.9269 25.7301ZM54.1868 30L54.1868 26.9269L53.9295 26.9269L53.9295 30L54.1868 30ZM54.0581 26.7982L53.6566 26.7982L53.6566 27.0556L54.0581 27.0556L54.0581 26.7982ZM53.5279 26.9269L53.5279 30L53.7853 30L53.7853 26.9269L53.5279 26.9269ZM53.6566 30.1287L54.0581 30.1287L54.0581 29.8713L53.6566 29.8713L53.6566 30.1287ZM53.5279 25.7301L53.5279 26.4791L53.7853 26.4791L53.7853 25.7301L53.5279 25.7301ZM53.6566 26.6077L54.0581 26.6077L54.0581 26.3504L53.6566 26.3504L53.6566 26.6077ZM54.1868 26.4791L54.1868 25.8845L53.9295 25.8845L53.9295 26.4791L54.1868 26.4791ZM54.1562 25.8012L54.0249 25.6467L53.8288 25.8134L53.9601 25.9679L54.1562 25.8012ZM53.9269 25.6014L53.6566 25.6014L53.6566 25.8588L53.9269 25.8588L53.9269 25.6014ZM59.6345 30L59.5058 30L59.5058 30.1287L59.6345 30.1287L59.6345 30ZM60.036 30L60.036 30.1287L60.1647 30.1287L60.1647 30L60.036 30ZM60.036 27.699L59.9524 27.6012L59.9073 27.6397L59.9073 27.699L60.036 27.699ZM60.5147 27.2898L60.5147 27.1611L60.4672 27.1611L60.4311 27.192L60.5147 27.2898ZM62.1671 27.2898L62.2958 27.2898L62.2958 27.1611L62.1671 27.1611L62.1671 27.2898ZM62.1671 30L62.0384 30L62.0384 30.1287L62.1671 30.1287L62.1671 30ZM62.5609 30L62.5609 30.1287L62.6896 30.1287L62.6896 30L62.5609 30ZM62.5609 27.1971L62.6896 27.1971L62.6896 27.1407L62.6481 27.1025L62.5609 27.1971ZM62.2675 26.9269L62.3547 26.8322L62.3177 26.7982L62.2675 26.7982L62.2675 26.9269ZM60.4607 26.9269L60.4607 26.7982L60.4132 26.7982L60.3771 26.8291L60.4607 26.9269ZM60.036 27.2898L59.9073 27.2898L59.9073 27.5691L60.1196 27.3876L60.036 27.2898ZM60.036 27.2049L60.1647 27.2049L60.1647 27.184L60.1581 27.1642L60.036 27.2049ZM59.9433 26.9269L60.0654 26.8862L60.0361 26.7982L59.9433 26.7982L59.9433 26.9269ZM59.6345 26.9269L59.6345 26.7982L59.5058 26.7982L59.5058 26.9269L59.6345 26.9269ZM59.6345 30.1287L60.036 30.1287L60.036 29.8713L59.6345 29.8713L59.6345 30.1287ZM60.1647 30L60.1647 27.699L59.9073 27.699L59.9073 30L60.1647 30ZM60.1196 27.7969L60.5983 27.3876L60.4311 27.192L59.9524 27.6012L60.1196 27.7969ZM60.5147 27.4185L62.1671 27.4185L62.1671 27.1611L60.5147 27.1611L60.5147 27.4185ZM62.0384 27.2898L62.0384 30L62.2958 30L62.2958 27.2898L62.0384 27.2898ZM62.1671 30.1287L62.5609 30.1287L62.5609 29.8713L62.1671 29.8713L62.1671 30.1287ZM62.6896 30L62.6896 27.1971L62.4322 27.1971L62.4322 30L62.6896 30ZM62.6481 27.1025L62.3547 26.8322L62.1803 27.0216L62.4737 27.2918L62.6481 27.1025ZM62.2675 26.7982L60.4607 26.7982L60.4607 27.0556L62.2675 27.0556L62.2675 26.7982ZM60.3771 26.8291L59.9524 27.192L60.1196 27.3876L60.5443 27.0247L60.3771 26.8291ZM60.1647 27.2898L60.1647 27.2049L59.9073 27.2049L59.9073 27.2898L60.1647 27.2898ZM60.1581 27.1642L60.0654 26.8862L59.8213 26.9676L59.9139 27.2456L60.1581 27.1642ZM59.9433 26.7982L59.6345 26.7982L59.6345 27.0556L59.9433 27.0556L59.9433 26.7982ZM59.5058 26.9269L59.5058 30L59.7632 30L59.7632 26.9269L59.5058 26.9269ZM68.4471 30L68.3625 30.097L68.3988 30.1287L68.4471 30.1287L68.4471 30ZM70.1998 30L70.1998 30.1287L70.2398 30.1287L70.2728 30.106L70.1998 30ZM70.6708 29.6757L70.7995 29.6757L70.7995 29.4309L70.5978 29.5697L70.6708 29.6757ZM70.6708 30.471L70.7596 30.5642L70.7995 30.5262L70.7995 30.471L70.6708 30.471ZM70.3465 30.7799L70.3465 30.9086L70.398 30.9086L70.4353 30.8731L70.3465 30.7799ZM68.3312 30.7799L68.3312 30.6512L68.2025 30.6512L68.2025 30.7799L68.3312 30.7799ZM68.3312 31.135L68.2025 31.135L68.2025 31.2637L68.3312 31.2637L68.3312 31.135ZM70.5473 31.135L70.5473 31.2637L70.5977 31.2637L70.6347 31.2294L70.5473 31.135ZM71.0723 30.6486L71.1598 30.743L71.201 30.7048L71.201 30.6486L71.0723 30.6486ZM71.0723 26.9269L71.201 26.9269L71.201 26.7982L71.0723 26.7982L71.0723 26.9269ZM68.4471 26.9269L68.4471 26.7982L68.3988 26.7982L68.3625 26.8299L68.4471 26.9269ZM68.1459 27.1894L68.0614 27.0924L68.0172 27.1309L68.0172 27.1894L68.1459 27.1894ZM68.1459 29.7375L68.0172 29.7375L68.0172 29.796L68.0614 29.8345L68.1459 29.7375ZM70.6708 27.2898L70.7995 27.2898L70.7995 27.1611L70.6708 27.1611L70.6708 27.2898ZM70.6708 29.2742L70.7443 29.3798L70.7995 29.3414L70.7995 29.2742L70.6708 29.2742ZM70.138 29.6448L70.138 29.7735L70.1784 29.7735L70.2115 29.7505L70.138 29.6448ZM68.5474 29.6448L68.4187 29.6448L68.4187 29.7735L68.5474 29.7735L68.5474 29.6448ZM68.5474 27.2898L68.5474 27.1611L68.4187 27.1611L68.4187 27.2898L68.5474 27.2898ZM68.4471 30.1287L70.1998 30.1287L70.1998 29.8713L68.4471 29.8713L68.4471 30.1287ZM70.2728 30.106L70.7438 29.7817L70.5978 29.5697L70.1268 29.894L70.2728 30.106ZM70.5421 29.6757L70.5421 30.471L70.7995 30.471L70.7995 29.6757L70.5421 29.6757ZM70.5821 30.3778L70.2578 30.6867L70.4353 30.8731L70.7596 30.5642L70.5821 30.3778ZM70.3465 30.6512L68.3312 30.6512L68.3312 30.9086L70.3465 30.9086L70.3465 30.6512ZM68.2025 30.7799L68.2025 31.135L68.4599 31.135L68.4599 30.7799L68.2025 30.7799ZM68.3312 31.2637L70.5473 31.2637L70.5473 31.0064L68.3312 31.0064L68.3312 31.2637ZM70.6347 31.2294L71.1598 30.743L70.9849 30.5542L70.4598 31.0406L70.6347 31.2294ZM71.201 30.6486L71.201 26.9269L70.9436 26.9269L70.9436 30.6486L71.201 30.6486ZM71.0723 26.7982L68.4471 26.7982L68.4471 27.0556L71.0723 27.0556L71.0723 26.7982ZM68.3625 26.8299L68.0614 27.0924L68.2305 27.2864L68.5316 27.0239L68.3625 26.8299ZM68.0172 27.1894L68.0172 29.7375L68.2746 29.7375L68.2746 27.1894L68.0172 27.1894ZM68.0614 29.8345L68.3625 30.097L68.5316 29.903L68.2305 29.6405L68.0614 29.8345ZM70.5421 27.2898L70.5421 29.2742L70.7995 29.2742L70.7995 27.2898L70.5421 27.2898ZM70.5973 29.1686L70.0645 29.5392L70.2115 29.7505L70.7443 29.3798L70.5973 29.1686ZM70.138 29.5161L68.5474 29.5161L68.5474 29.7735L70.138 29.7735L70.138 29.5161ZM68.6761 29.6448L68.6761 27.2898L68.4187 27.2898L68.4187 29.6448L68.6761 29.6448ZM68.5474 27.4185L70.6708 27.4185L70.6708 27.1611L68.5474 27.1611L68.5474 27.4185ZM27.2609 32.9269L27.2609 32.7982L27.1322 32.7982L27.1322 32.9269L27.2609 32.9269ZM27.2609 33.4133L27.1322 33.4133L27.1322 33.4402L27.143 33.4648L27.2609 33.4133ZM28.3882 36L28.2703 36.0514L28.304 36.1287L28.3882 36.1287L28.3882 36ZM28.9828 36L28.9828 36.1287L29.0681 36.1287L29.1013 36.0502L28.9828 36ZM29.8785 33.8843L29.9963 33.8327L29.8765 33.559L29.76 33.8342L29.8785 33.8843ZM30.805 36L30.6872 36.0516L30.7209 36.1287L30.805 36.1287L30.805 36ZM31.4073 36L31.4073 36.1287L31.4928 36.1287L31.5259 36.0499L31.4073 36ZM32.496 33.4133L32.6146 33.4633L32.6247 33.4393L32.6247 33.4133L32.496 33.4133ZM32.496 32.9269L32.6247 32.9269L32.6247 32.7982L32.496 32.7982L32.496 32.9269ZM32.0945 32.9269L32.0945 32.7982L31.9658 32.7982L31.9658 32.9269L32.0945 32.9269ZM32.0945 33.3979L32.2134 33.4472L32.2232 33.4235L32.2232 33.3979L32.0945 33.3979ZM31.1757 35.6139L31.1757 35.7426L31.2616 35.7426L31.2945 35.6632L31.1757 35.6139ZM31.029 35.6139L30.9107 35.6646L30.9441 35.7426L31.029 35.7426L31.029 35.6139ZM30.0792 33.3979L29.9505 33.3979L29.9505 33.4243L29.9609 33.4486L30.0792 33.3979ZM30.0792 32.9269L30.2079 32.9269L30.2079 32.7982L30.0792 32.7982L30.0792 32.9269ZM29.6777 32.9269L29.6777 32.7982L29.549 32.7982L29.549 32.9269L29.6777 32.9269ZM29.6777 33.3979L29.7964 33.4475L29.8064 33.4237L29.8064 33.3979L29.6777 33.3979ZM28.7511 35.6139L28.7511 35.7426L28.8368 35.7426L28.8699 35.6636L28.7511 35.6139ZM28.6122 35.6139L28.4939 35.6646L28.5273 35.7426L28.6122 35.7426L28.6122 35.6139ZM27.6624 33.3979L27.5337 33.3979L27.5337 33.4243L27.5442 33.4486L27.6624 33.3979ZM27.6624 32.9269L27.7911 32.9269L27.7911 32.7982L27.6624 32.7982L27.6624 32.9269ZM27.1322 32.9269L27.1322 33.4133L27.3896 33.4133L27.3896 32.9269L27.1322 32.9269ZM27.143 33.4648L28.2703 36.0514L28.5062 35.9486L27.3789 33.3619L27.143 33.4648ZM28.3882 36.1287L28.9828 36.1287L28.9828 35.8713L28.3882 35.8713L28.3882 36.1287ZM29.1013 36.0502L29.997 33.9345L29.76 33.8342L28.8643 35.9498L29.1013 36.0502ZM29.7606 33.936L30.6872 36.0516L30.9229 35.9484L29.9963 33.8327L29.7606 33.936ZM30.805 36.1287L31.4073 36.1287L31.4073 35.8713L30.805 35.8713L30.805 36.1287ZM31.5259 36.0499L32.6146 33.4633L32.3774 33.3634L31.2887 35.9501L31.5259 36.0499ZM32.6247 33.4133L32.6247 32.9269L32.3673 32.9269L32.3673 33.4133L32.6247 33.4133ZM32.496 32.7982L32.0945 32.7982L32.0945 33.0556L32.496 33.0556L32.496 32.7982ZM31.9658 32.9269L31.9658 33.3979L32.2232 33.3979L32.2232 32.9269L31.9658 32.9269ZM31.9756 33.3486L31.0568 35.5646L31.2945 35.6632L32.2134 33.4472L31.9756 33.3486ZM31.1757 35.4852L31.029 35.4852L31.029 35.7426L31.1757 35.7426L31.1757 35.4852ZM31.1472 35.5632L30.1975 33.3472L29.9609 33.4486L30.9107 35.6646L31.1472 35.5632ZM30.2079 33.3979L30.2079 32.9269L29.9505 32.9269L29.9505 33.3979L30.2079 33.3979ZM30.0792 32.7982L29.6777 32.7982L29.6777 33.0556L30.0792 33.0556L30.0792 32.7982ZM29.549 32.9269L29.549 33.3979L29.8064 33.3979L29.8064 32.9269L29.549 32.9269ZM29.559 33.3483L28.6324 35.5643L28.8699 35.6636L29.7964 33.4475L29.559 33.3483ZM28.7511 35.4852L28.6122 35.4852L28.6122 35.7426L28.7511 35.7426L28.7511 35.4852ZM28.7304 35.5632L27.7807 33.3472L27.5442 33.4486L28.4939 35.6646L28.7304 35.5632ZM27.7911 33.3979L27.7911 32.9269L27.5337 32.9269L27.5337 33.3979L27.7911 33.3979ZM27.6624 32.7982L27.2609 32.7982L27.2609 33.0556L27.6624 33.0556L27.6624 32.7982ZM38.4001 36L38.4001 36.1287L38.5288 36.1287L38.5288 36L38.4001 36ZM38.4001 32.9269L38.5288 32.9269L38.5288 32.7982L38.4001 32.7982L38.4001 32.9269ZM37.9986 32.9269L37.9986 32.7982L37.8699 32.7982L37.8699 32.9269L37.9986 32.9269ZM37.9986 36L37.8699 36L37.8699 36.1287L37.9986 36.1287L37.9986 36ZM37.9986 31.7301L37.9986 31.6014L37.8699 31.6014L37.8699 31.7301L37.9986 31.7301ZM37.9986 32.4791L37.8699 32.4791L37.8699 32.6077L37.9986 32.6077L37.9986 32.4791ZM38.4001 32.4791L38.4001 32.6077L38.5288 32.6077L38.5288 32.4791L38.4001 32.4791ZM38.4001 31.8845L38.5288 31.8845L38.5288 31.8372L38.4981 31.8012L38.4001 31.8845ZM38.2688 31.7301L38.3669 31.6467L38.3283 31.6014L38.2688 31.6014L38.2688 31.7301ZM38.5288 36L38.5288 32.9269L38.2714 32.9269L38.2714 36L38.5288 36ZM38.4001 32.7982L37.9986 32.7982L37.9986 33.0556L38.4001 33.0556L38.4001 32.7982ZM37.8699 32.9269L37.8699 36L38.1273 36L38.1273 32.9269L37.8699 32.9269ZM37.9986 36.1287L38.4001 36.1287L38.4001 35.8713L37.9986 35.8713L37.9986 36.1287ZM37.8699 31.7301L37.8699 32.4791L38.1273 32.4791L38.1273 31.7301L37.8699 31.7301ZM37.9986 32.6077L38.4001 32.6077L38.4001 32.3504L37.9986 32.3504L37.9986 32.6077ZM38.5288 32.4791L38.5288 31.8845L38.2714 31.8845L38.2714 32.4791L38.5288 32.4791ZM38.4981 31.8012L38.3669 31.6467L38.1708 31.8134L38.302 31.9679L38.4981 31.8012ZM38.2688 31.6014L37.9986 31.6014L37.9986 31.8588L38.2688 31.8588L38.2688 31.6014ZM44.8026 32.9269L44.6739 32.9269L44.6739 33.0556L44.8026 33.0556L44.8026 32.9269ZM44.8026 32.3015L44.9313 32.3015L44.9313 32.2563L44.9031 32.2211L44.8026 32.3015ZM44.6791 32.147L44.7796 32.0667L44.7409 32.0184L44.6791 32.0184L44.6791 32.147ZM44.4011 32.147L44.4011 32.0184L44.2724 32.0184L44.2724 32.147L44.4011 32.147ZM44.4011 32.9269L44.4011 33.0556L44.5298 33.0556L44.5298 32.9269L44.4011 32.9269ZM43.9764 32.9269L43.9764 32.7982L43.8478 32.7982L43.8478 32.9269L43.9764 32.9269ZM43.9764 33.2821L43.8478 33.2821L43.8478 33.4108L43.9764 33.4108L43.9764 33.2821ZM44.4011 33.2821L44.5298 33.2821L44.5298 33.1534L44.4011 33.1534L44.4011 33.2821ZM44.4011 35.7375L44.2724 35.7375L44.2724 35.796L44.3166 35.8345L44.4011 35.7375ZM44.7022 36L44.6177 36.097L44.654 36.1287L44.7022 36.1287L44.7022 36ZM46.0921 36L46.0921 36.1287L46.2208 36.1287L46.2208 36L46.0921 36ZM46.0921 35.6448L46.2208 35.6448L46.2208 35.5161L46.0921 35.5161L46.0921 35.6448ZM44.8026 35.6448L44.6739 35.6448L44.6739 35.7735L44.8026 35.7735L44.8026 35.6448ZM44.8026 33.2821L44.8026 33.1534L44.6739 33.1534L44.6739 33.2821L44.8026 33.2821ZM46.0921 33.2821L46.0921 33.4108L46.2208 33.4108L46.2208 33.2821L46.0921 33.2821ZM46.0921 32.9269L46.2208 32.9269L46.2208 32.7982L46.0921 32.7982L46.0921 32.9269ZM44.9313 32.9269L44.9313 32.3015L44.6739 32.3015L44.6739 32.9269L44.9313 32.9269ZM44.9031 32.2211L44.7796 32.0667L44.5786 32.2274L44.7021 32.3819L44.9031 32.2211ZM44.6791 32.0184L44.4011 32.0184L44.4011 32.2757L44.6791 32.2757L44.6791 32.0184ZM44.2724 32.147L44.2724 32.9269L44.5298 32.9269L44.5298 32.147L44.2724 32.147ZM44.4011 32.7982L43.9764 32.7982L43.9764 33.0556L44.4011 33.0556L44.4011 32.7982ZM43.8478 32.9269L43.8478 33.2821L44.1051 33.2821L44.1051 32.9269L43.8478 32.9269ZM43.9764 33.4108L44.4011 33.4108L44.4011 33.1534L43.9764 33.1534L43.9764 33.4108ZM44.2724 33.2821L44.2724 35.7375L44.5298 35.7375L44.5298 33.2821L44.2724 33.2821ZM44.3166 35.8345L44.6177 36.097L44.7868 35.903L44.4857 35.6405L44.3166 35.8345ZM44.7022 36.1287L46.0921 36.1287L46.0921 35.8713L44.7022 35.8713L44.7022 36.1287ZM46.2208 36L46.2208 35.6448L45.9634 35.6448L45.9634 36L46.2208 36ZM46.0921 35.5161L44.8026 35.5161L44.8026 35.7735L46.0921 35.7735L46.0921 35.5161ZM44.9313 35.6448L44.9313 33.2821L44.6739 33.2821L44.6739 35.6448L44.9313 35.6448ZM44.8026 33.4108L46.0921 33.4108L46.0921 33.1534L44.8026 33.1534L44.8026 33.4108ZM46.2208 33.2821L46.2208 32.9269L45.9634 32.9269L45.9634 33.2821L46.2208 33.2821ZM46.0921 32.7982L44.8026 32.7982L44.8026 33.0556L46.0921 33.0556L46.0921 32.7982ZM51.6735 36L51.5448 36L51.5448 36.1287L51.6735 36.1287L51.6735 36ZM52.075 36L52.075 36.1287L52.2037 36.1287L52.2037 36L52.075 36ZM52.075 33.7531L51.9913 33.6554L51.9463 33.6939L51.9463 33.7531L52.075 33.7531ZM52.6155 33.2898L52.6155 33.1611L52.5679 33.1611L52.5318 33.1921L52.6155 33.2898ZM54.2679 33.2898L54.3966 33.2898L54.3966 33.1611L54.2679 33.1611L54.2679 33.2898ZM54.2679 36L54.1392 36L54.1392 36.1287L54.2679 36.1287L54.2679 36ZM54.6617 36L54.6617 36.1287L54.7904 36.1287L54.7904 36L54.6617 36ZM54.6617 33.1971L54.7904 33.1971L54.7904 33.1407L54.7489 33.1025L54.6617 33.1971ZM54.3683 32.9269L54.4554 32.8322L54.4185 32.7982L54.3683 32.7982L54.3683 32.9269ZM52.5615 32.9269L52.5615 32.7982L52.5145 32.7982L52.4786 32.8284L52.5615 32.9269ZM52.075 33.3361L51.9463 33.3361L51.9463 33.6126L52.1579 33.4346L52.075 33.3361ZM52.075 31.8922L52.2037 31.8922L52.2037 31.8488L52.1774 31.8142L52.075 31.8922ZM51.9515 31.7301L52.0538 31.6521L52.0152 31.6014L51.9515 31.6014L51.9515 31.7301ZM51.6735 31.7301L51.6735 31.6014L51.5448 31.6014L51.5448 31.7301L51.6735 31.7301ZM51.6735 36.1287L52.075 36.1287L52.075 35.8713L51.6735 35.8713L51.6735 36.1287ZM52.2037 36L52.2037 33.7531L51.9463 33.7531L51.9463 36L52.2037 36ZM52.1588 33.8508L52.6993 33.3875L52.5318 33.1921L51.9913 33.6554L52.1588 33.8508ZM52.6155 33.4185L54.2679 33.4185L54.2679 33.1611L52.6155 33.1611L52.6155 33.4185ZM54.1392 33.2898L54.1392 36L54.3966 36L54.3966 33.2898L54.1392 33.2898ZM54.2679 36.1287L54.6617 36.1287L54.6617 35.8713L54.2679 35.8713L54.2679 36.1287ZM54.7904 36L54.7904 33.1971L54.533 33.1971L54.533 36L54.7904 36ZM54.7489 33.1025L54.4554 32.8322L54.2811 33.0216L54.5745 33.2918L54.7489 33.1025ZM54.3683 32.7982L52.5615 32.7982L52.5615 33.0556L54.3683 33.0556L54.3683 32.7982ZM52.4786 32.8284L51.9922 33.2377L52.1579 33.4346L52.6443 33.0254L52.4786 32.8284ZM52.2037 33.3361L52.2037 31.8922L51.9463 31.8922L51.9463 33.3361L52.2037 33.3361ZM52.1774 31.8142L52.0538 31.6521L51.8491 31.8081L51.9727 31.9702L52.1774 31.8142ZM51.9515 31.6014L51.6735 31.6014L51.6735 31.8588L51.9515 31.8588L51.9515 31.6014ZM51.5448 31.7301L51.5448 36L51.8022 36L51.8022 31.7301L51.5448 31.7301Z" fill="white"/>
<path d="M29.77 2.46858H19.4114L21.4891 0.130859H27.9089C29.169 0.130859 29.7991 0.715693 29.7991 2.04448C29.7991 2.1765 29.7894 2.31788 29.77 2.46858ZM29.6837 3.40176C29.6837 4.0049 29.3086 4.44782 28.5584 4.73055C28.8372 5.19247 28.9863 5.43752 29.0057 5.4657C29.1113 5.70127 29.1642 6.00284 29.1642 6.37041C29.1642 6.40809 29.1642 6.50228 29.1642 6.65299C29.1067 7.58603 28.722 8.34002 28.0102 8.91497C27.4619 9.37688 26.8655 9.73236 26.2209 9.89257H18.3438L20.2625 3.40175L29.6837 3.40176ZM25.1391 6.73799C25.1391 6.45526 25.0381 6.29505 24.8362 6.25737H22.5855L22.3112 7.24707H24.5474C24.6821 7.24707 24.8144 7.19522 24.9443 7.09153C25.0742 6.98785 25.1391 6.87001 25.1391 6.73799Z" fill="#E6E6E6"/>
<path d="M35.4366 0.130859L34.715 2.50947H31.224L31.8875 0.130859H35.4366ZM38.1487 7.48598L36.1292 9.89257H29.1172L30.9783 3.44265H34.4843L33.3303 7.47175L38.1487 7.48598Z" fill="#E6E6E6"/>
<path d="M44.0227 2.45366L43.5083 0.130859H40.0171L37.9584 2.45366H44.0227ZM41.074 5.87009L42.0617 9.89256H45.5529L44.2176 3.40327H37.444L35.3438 5.87009H41.074Z" fill="#E6E6E6"/>
<path d="M56.4127 2.57862H46.7398L48.2333 0.130859H53.8586C54.4725 0.13087 55.0447 0.452416 55.5752 0.93637C56.1057 1.42034 56.3848 1.96776 56.4127 2.57862ZM56.5801 3.49493C56.58 5.14887 56.2637 6.44575 55.631 7.38557C55.1193 8.14672 54.654 8.68704 54.2351 9.00653C53.3977 9.63633 52.3415 9.89256 51.0668 9.89256H45.5254L47.3541 3.49493H50.7878L49.6291 7.42773C49.8524 7.5218 50.0896 7.56883 50.3409 7.56883C50.8064 7.56883 51.2903 7.42314 51.7926 7.13175C52.6022 6.67145 53.1327 6.00896 53.384 5.14428C53.5141 4.70262 53.5885 4.15284 53.6072 3.49493H56.5801Z" fill="#E6E6E6"/>
<path d="M66.9725 0.210428L66.3582 2.57862H57.2579L58.7654 0.130859L66.9725 0.210428ZM66.0652 3.49493L65.3951 6.06058H60.859L60.4961 7.38557H64.9904L64.3204 9.89256H56.127L57.83 3.49493H66.0652Z" fill="#E6E6E6"/>
<path d="M29.6255 2.33772H19.2669L21.3446 0H27.7644C29.0245 0 29.6545 0.584834 29.6545 1.91362C29.6545 2.04565 29.6448 2.18702 29.6255 2.33772ZM29.5392 3.2709C29.5392 3.87404 29.1641 4.31697 28.4138 4.59969C28.6927 5.06161 28.8418 5.30666 28.8612 5.33484C28.9668 5.57041 29.0197 5.87198 29.0197 6.23955C29.0197 6.27723 29.0197 6.37143 29.0197 6.52213C28.9621 7.45517 28.5775 8.20916 27.8657 8.78411C27.3174 9.24603 26.7209 9.6015 26.0764 9.76171H18.1992L20.118 3.27089L29.5392 3.2709ZM24.9946 6.60713C24.9946 6.3244 24.8936 6.16419 24.6917 6.12651H22.4409L22.1666 7.11621H24.4028C24.5376 7.11621 24.6699 7.06436 24.7998 6.96068C24.9296 6.85699 24.9946 6.73915 24.9946 6.60713Z" fill="white"/>
<path d="M35.2921 0L34.5704 2.37861H31.0794L31.7429 0H35.2921ZM38.0042 7.35512L35.9846 9.76171H28.9727L30.8337 3.31179H34.3397L33.1857 7.34089L38.0042 7.35512Z" fill="white"/>
<path d="M43.8782 2.3228L43.3638 0H39.8726L37.8139 2.3228H43.8782ZM40.9295 5.73923L41.9172 9.7617H45.4084L44.073 3.27241H37.2995L35.1992 5.73923H40.9295Z" fill="white"/>
<path d="M56.2759 2.44776H46.6031L48.0965 0H53.7218C54.3358 1.09689e-05 54.908 0.321557 55.4385 0.805511C55.9689 1.28948 56.2481 1.8369 56.2759 2.44776ZM56.4433 3.36407C56.4433 5.01801 56.127 6.31489 55.4943 7.25471C54.9826 8.01586 54.5173 8.55618 54.0984 8.87567C53.2609 9.50547 52.2048 9.7617 50.9301 9.7617H45.3887L47.2173 3.36407H50.6511L49.4924 7.29687C49.7156 7.39094 49.9529 7.43797 50.2042 7.43797C50.6696 7.43797 51.1535 7.29228 51.6559 7.00089C52.4655 6.54059 52.996 5.8781 53.2473 5.01342C53.3774 4.57176 53.4518 4.02198 53.4705 3.36407H56.4433Z" fill="white"/>
<path d="M66.8338 0.0795689L66.2196 2.44776H57.1192L58.6267 0L66.8338 0.0795689ZM65.9265 3.36407L65.2564 5.92972H60.7203L60.3574 7.25471H64.8518L64.1817 9.7617H55.9883L57.6913 3.36407H65.9265Z" fill="white"/>
<path d="M20.5397 14.5306H9.40338L10.9264 12.2766H19.1027C19.3231 12.2766 19.5459 12.1244 19.771 12.2766C19.9961 12.4289 20.1661 12.7237 20.281 12.933C20.4535 13.2467 20.5397 13.7792 20.5397 14.5306ZM20.3674 15.4861C20.2908 16.0662 19.9554 16.613 19.3614 17.1264C19.0933 17.3643 18.8682 17.5118 18.6861 17.5686C18.9065 17.9111 19.0167 18.2726 19.0167 18.653C19.0167 18.8716 18.9831 19.1805 18.9159 19.5798C18.8775 19.8271 18.6285 20.6378 18.1686 21.9978H14.9498L16.0996 18.068H12.7085L11.4868 21.9978H8.13867L10.0642 15.4861H20.3674Z" fill="#E6E6E6"/>
<path d="M31.493 12.2793L30.8173 14.5615H27.5411L28.2024 12.2793H31.493ZM25.5151 12.2793L24.8542 14.5615H21.621L22.2963 12.2793H25.5151ZM30.5875 15.4888L28.7768 22.0004H23.5176C21.8699 22.0004 20.8498 21.5179 20.4571 20.5384C20.3516 20.272 20.2988 20.0058 20.2988 19.7396C20.2988 19.5876 20.318 19.4449 20.3563 19.3117L21.4197 15.4888H24.61L23.5895 19.0261C23.5416 19.1881 23.5176 19.3071 23.5176 19.3831C23.5176 19.5732 23.6135 19.6968 23.8053 19.754H26.1045L27.3113 15.4888L30.5875 15.4888Z" fill="#E6E6E6"/>
<path d="M42.6693 12.2793L41.951 14.5472H32.5389L33.2143 12.2793H36.476L38.6029 14.1763L39.1203 12.2793H42.6693ZM41.7642 15.4888L40.011 22.0004H36.4041L37.5109 18.0419L35.4126 16.1448L33.7458 22.0004H30.4551L32.2513 15.4888H41.7642Z" fill="#E6E6E6"/>
<path d="M53.7748 12.2793L53.0565 14.5472H43.6444L44.3197 12.2793H47.5815L49.7083 14.1763L50.2258 12.2793H53.7748ZM52.8697 15.4888L51.1164 22.0004H47.5096L48.6164 18.0419L46.5181 16.1448L44.8512 22.0004H41.5605L43.3567 15.4888H52.8697Z" fill="#E6E6E6"/>
<path d="M63.6594 12.2793L63.0271 14.5615H53.6584L55.2104 12.2793H63.6594ZM62.7254 15.4888L62.0356 18.085H57.3657L56.9921 19.4258H61.619L60.9292 22.0004H52.4941L54.2474 15.4888H62.7254Z" fill="#E6E6E6"/>
<path d="M74.5905 14.5316H63.4542L64.9772 12.2777H73.1534C73.3739 12.2777 73.5966 12.2396 73.8218 12.3918C74.0469 12.544 74.2168 12.7248 74.3318 12.934C74.5042 13.2477 74.5905 13.7803 74.5905 14.5316ZM74.4181 15.4871C74.3415 16.0673 74.0062 16.614 73.4122 17.1274C73.1441 17.3654 72.919 17.5128 72.7368 17.5697C72.9573 17.9121 73.0675 18.2736 73.0675 18.6541C73.0675 18.8726 73.0339 19.1815 72.9666 19.5808C72.9283 19.8281 72.6792 20.6389 72.2194 21.9988H69.0006L70.1504 18.069H66.7593L65.5376 21.9988H62.1895L64.115 15.4871H74.4181Z" fill="#E6E6E6"/>
<path d="M20.401 14.3919H9.26471L10.7877 12.138H18.964C19.1844 12.138 19.4072 11.9858 19.6323 12.138C19.8574 12.2902 20.0274 12.5851 20.1423 12.7943C20.3148 13.108 20.401 13.6406 20.401 14.3919ZM20.2287 15.3474C20.1521 15.9276 19.8168 16.4743 19.2227 16.9877C18.9546 17.2257 18.7295 17.3731 18.5474 17.43C18.7678 17.7724 18.878 18.1339 18.878 18.5143C18.878 18.7329 18.8444 19.0418 18.7772 19.4411C18.7389 19.6884 18.4898 20.4992 18.0299 21.8591H14.8112L15.961 17.9293H12.5699L11.3481 21.8591H8L9.92556 15.3474H20.2287Z" fill="white"/>
<path d="M31.3544 12.1406L30.6786 14.4229H27.4024L28.0637 12.1406H31.3544ZM25.3764 12.1406L24.7155 14.4229H21.4823L22.1576 12.1406H25.3764ZM30.4488 15.3501L28.6382 21.8618H23.3789C21.7312 21.8618 20.7111 21.3792 20.3185 20.3998C20.2129 20.1334 20.1602 19.8671 20.1602 19.601C20.1602 19.4489 20.1793 19.3063 20.2176 19.173L21.281 15.3501H24.4713L23.4508 18.8875C23.4029 19.0494 23.3789 19.1684 23.3789 19.2444C23.3789 19.4345 23.4748 19.5582 23.6666 19.6153H25.9658L27.1726 15.3501L30.4488 15.3501Z" fill="white"/>
<path d="M42.5306 12.1406L41.8123 14.4085H32.4003L33.0756 12.1406H36.3373L38.4642 14.0376L38.9816 12.1406H42.5306ZM41.6255 15.3501L39.8723 21.8618H36.2654L37.3723 17.9032L35.2739 16.0061L33.6071 21.8618H30.3164L32.1126 15.3501H41.6255Z" fill="white"/>
<path d="M53.6381 12.1406L52.9198 14.4085H43.5077L44.183 12.1406H47.4448L49.5716 14.0376L50.0891 12.1406H53.6381ZM52.7329 15.3501L50.9797 21.8618H47.3728L48.4797 17.9032L46.3813 16.0061L44.7145 21.8618H41.4238L43.22 15.3501H52.7329Z" fill="white"/>
<path d="M63.5207 12.1406L62.8884 14.4229H53.5197L55.0717 12.1406H63.5207ZM62.5867 15.3501L61.8969 17.9463H57.227L56.8534 19.2871H61.4803L60.7905 21.8618H52.3555L54.1087 15.3501H62.5867Z" fill="white"/>
<path d="M74.4518 14.3929H63.3155L64.8385 12.139H73.0148C73.2352 12.139 73.458 12.1009 73.6831 12.2531C73.9082 12.4054 74.0782 12.5861 74.1931 12.7953C74.3656 13.1091 74.4518 13.6416 74.4518 14.3929ZM74.2795 15.3485C74.2029 15.9286 73.8675 16.4753 73.2735 16.9887C73.0054 17.2267 72.7803 17.3741 72.5982 17.431C72.8186 17.7735 72.9288 18.1349 72.9288 18.5154C72.9288 18.7339 72.8952 19.0428 72.828 19.4422C72.7896 19.6894 72.5406 20.5002 72.0807 21.8601H68.8619L70.0118 17.9303H66.6206L65.3989 21.8601H62.0508L63.9763 15.3485H74.2795Z" fill="white"/>
</svg>
