<svg width="261" height="49" viewBox="0 0 261 49" fill="none" xmlns="http://www.w3.org/2000/svg">
<rect x="6.32422" y="13.7031" width="5.35135" height="21.4054" rx="2.67568" fill="white"/>
<rect x="13.1348" y="13.7031" width="4.86486" height="21.4054" rx="2.43243" fill="white"/>
<rect y="6.89258" width="4.86486" height="28.2162" rx="2.43243" fill="white"/>
<path d="M26.828 20.836L26.828 21.97L29.456 28L30.842 28L32.93 23.068L35.09 28L36.494 28L39.032 21.97L39.032 20.836L38.096 20.836L38.096 21.934L35.954 27.1L35.612 27.1L33.398 21.934L33.398 20.836L32.462 20.836L32.462 21.934L30.302 27.1L29.978 27.1L27.764 21.934L27.764 20.836L26.828 20.836ZM44.2799 28L48.4379 28L49.4999 27.262L49.4999 27.334L49.6619 28L50.4359 28L50.4359 21.448L49.7339 20.836L43.9199 20.836L43.9199 21.664L49.4999 21.664L49.4999 23.806L44.2799 23.806L43.5959 24.436L43.5959 27.37L44.2799 28ZM44.5139 24.562L49.4999 24.562L49.4999 26.326L48.3299 27.154L44.5139 27.154L44.5139 24.562ZM56.3913 27.172L56.3913 18.424L56.0853 18.046L55.4553 18.046L55.4553 27.388L56.1573 28L59.4333 28L59.4333 27.172L56.3913 27.172ZM65.2448 27.172L65.2448 18.424L64.9388 18.046L64.3088 18.046L64.3088 27.388L65.0108 28L68.2868 28L68.2868 27.172L65.2448 27.172ZM73.442 28L77.6 28L78.662 27.262L78.662 27.334L78.824 28L79.598 28L79.598 21.448L78.896 20.836L73.082 20.836L73.082 21.664L78.662 21.664L78.662 23.806L73.442 23.806L72.758 24.436L72.758 27.37L73.442 28ZM73.676 24.562L78.662 24.562L78.662 26.326L77.492 27.154L73.676 27.154L73.676 24.562ZM84.6174 27.388L85.3194 28L90.7554 28L91.4574 27.388L91.4574 25.624L90.5394 25.624L90.5394 27.172L85.5534 27.172L85.5534 21.664L90.5394 21.664L90.5394 23.212L91.4574 23.212L91.4574 21.448L90.7554 20.836L85.3194 20.836L84.6174 21.448L84.6174 27.388ZM103.299 24.292L103.299 21.448L102.597 20.836L97.1787 20.836L96.4767 21.448L96.4767 26.47L98.0787 28L102.903 28L102.903 27.172L98.4747 27.172L97.3767 26.074L97.3767 24.868L102.597 24.868L103.299 24.292ZM102.363 24.13L97.4127 24.13L97.4127 21.664L102.363 21.664L102.363 24.13ZM115.467 27.388L116.169 28L121.605 28L122.307 27.388L122.307 25.624L121.389 25.624L121.389 27.172L116.403 27.172L116.403 21.664L121.389 21.664L121.389 23.212L122.307 23.212L122.307 21.448L121.605 20.836L116.169 20.836L115.467 21.448L115.467 27.388ZM128.028 28L133.446 28L134.148 27.388L134.148 21.448L133.446 20.836L128.028 20.836L127.326 21.448L127.326 27.388L128.028 28ZM128.262 21.664L133.212 21.664L133.212 27.172L128.262 27.172L128.262 21.664ZM139.168 28L140.104 28L140.104 22.69L141.346 21.664L142.966 21.664L142.966 20.836L141.22 20.836L140.104 21.754L140.104 21.196L139.816 20.836L139.168 20.836L139.168 28ZM147.688 20.836L147.688 30.646L148.336 30.646L148.624 30.286L148.624 27.226L149.722 28L153.808 28L154.51 27.388L154.51 21.448L153.808 20.836L147.688 20.836ZM148.624 26.29L148.624 21.682L153.574 21.682L153.574 27.172L149.866 27.172L148.624 26.29ZM160.465 28L160.465 26.884L160.177 26.506L159.529 26.506L159.529 28L160.465 28Z" fill="white"/>
<path d="M26.828 20.836L26.828 20.536L26.528 20.536L26.528 20.836L26.828 20.836ZM26.828 21.97L26.528 21.97L26.528 22.0325L26.553 22.0899L26.828 21.97ZM29.456 28L29.181 28.1199L29.2595 28.3L29.456 28.3L29.456 28ZM30.842 28L30.842 28.3L31.0408 28.3L31.1183 28.117L30.842 28ZM32.93 23.068L33.2048 22.9476L32.9253 22.3095L32.6537 22.951L32.93 23.068ZM35.09 28L34.8152 28.1204L34.8939 28.3L35.09 28.3L35.09 28ZM36.494 28L36.494 28.3L36.6932 28.3L36.7705 28.1164L36.494 28ZM39.032 21.97L39.3085 22.0864L39.332 22.0306L39.332 21.97L39.032 21.97ZM39.032 20.836L39.332 20.836L39.332 20.536L39.032 20.536L39.032 20.836ZM38.096 20.836L38.096 20.536L37.796 20.536L37.796 20.836L38.096 20.836ZM38.096 21.934L38.3731 22.0489L38.396 21.9937L38.396 21.934L38.096 21.934ZM35.954 27.1L35.954 27.4L36.1544 27.4L36.2311 27.2149L35.954 27.1ZM35.612 27.1L35.3363 27.2182L35.4142 27.4L35.612 27.4L35.612 27.1ZM33.398 21.934L33.098 21.934L33.098 21.9956L33.1223 22.0522L33.398 21.934ZM33.398 20.836L33.698 20.836L33.698 20.536L33.398 20.536L33.398 20.836ZM32.462 20.836L32.462 20.536L32.162 20.536L32.162 20.836L32.462 20.836ZM32.462 21.934L32.7388 22.0497L32.762 21.9942L32.762 21.934L32.462 21.934ZM30.302 27.1L30.302 27.4L30.5017 27.4L30.5788 27.2157L30.302 27.1ZM29.978 27.1L29.7023 27.2182L29.7802 27.4L29.978 27.4L29.978 27.1ZM27.764 21.934L27.464 21.934L27.464 21.9956L27.4883 22.0522L27.764 21.934ZM27.764 20.836L28.064 20.836L28.064 20.536L27.764 20.536L27.764 20.836ZM26.528 20.836L26.528 21.97L27.128 21.97L27.128 20.836L26.528 20.836ZM26.553 22.0899L29.181 28.1199L29.731 27.8801L27.103 21.8501L26.553 22.0899ZM29.456 28.3L30.842 28.3L30.842 27.7L29.456 27.7L29.456 28.3ZM31.1183 28.117L33.2063 23.185L32.6537 22.951L30.5657 27.883L31.1183 28.117ZM32.6552 23.1884L34.8152 28.1204L35.3648 27.8796L33.2048 22.9476L32.6552 23.1884ZM35.09 28.3L36.494 28.3L36.494 27.7L35.09 27.7L35.09 28.3ZM36.7705 28.1164L39.3085 22.0864L38.7555 21.8536L36.2175 27.8836L36.7705 28.1164ZM39.332 21.97L39.332 20.836L38.732 20.836L38.732 21.97L39.332 21.97ZM39.032 20.536L38.096 20.536L38.096 21.136L39.032 21.136L39.032 20.536ZM37.796 20.836L37.796 21.934L38.396 21.934L38.396 20.836L37.796 20.836ZM37.8189 21.8191L35.6769 26.9851L36.2311 27.2149L38.3731 22.0489L37.8189 21.8191ZM35.954 26.8L35.612 26.8L35.612 27.4L35.954 27.4L35.954 26.8ZM35.8877 26.9818L33.6737 21.8158L33.1223 22.0522L35.3363 27.2182L35.8877 26.9818ZM33.698 21.934L33.698 20.836L33.098 20.836L33.098 21.934L33.698 21.934ZM33.398 20.536L32.462 20.536L32.462 21.136L33.398 21.136L33.398 20.536ZM32.162 20.836L32.162 21.934L32.762 21.934L32.762 20.836L32.162 20.836ZM32.1852 21.8183L30.0252 26.9843L30.5788 27.2157L32.7388 22.0497L32.1852 21.8183ZM30.302 26.8L29.978 26.8L29.978 27.4L30.302 27.4L30.302 26.8ZM30.2537 26.9818L28.0397 21.8158L27.4883 22.0522L29.7023 27.2182L30.2537 26.9818ZM28.064 21.934L28.064 20.836L27.464 20.836L27.464 21.934L28.064 21.934ZM27.764 20.536L26.828 20.536L26.828 21.136L27.764 21.136L27.764 20.536ZM44.2799 28L44.0766 28.2207L44.1628 28.3L44.2799 28.3L44.2799 28ZM48.4379 28L48.4379 28.3L48.5319 28.3L48.6091 28.2464L48.4379 28ZM49.4999 27.262L49.7999 27.262L49.7999 26.6882L49.3287 27.0156L49.4999 27.262ZM49.4999 27.334L49.1999 27.334L49.1999 27.37L49.2084 27.4049L49.4999 27.334ZM49.6619 28L49.3704 28.0709L49.4261 28.3L49.6619 28.3L49.6619 28ZM50.4359 28L50.4359 28.3L50.7359 28.3L50.7359 28L50.4359 28ZM50.4359 21.448L50.7359 21.448L50.7359 21.3115L50.633 21.2219L50.4359 21.448ZM49.7339 20.836L49.931 20.6099L49.8463 20.536L49.7339 20.536L49.7339 20.836ZM43.9199 20.836L43.9199 20.536L43.6199 20.536L43.6199 20.836L43.9199 20.836ZM43.9199 21.664L43.6199 21.664L43.6199 21.964L43.9199 21.964L43.9199 21.664ZM49.4999 21.664L49.7999 21.664L49.7999 21.364L49.4999 21.364L49.4999 21.664ZM49.4999 23.806L49.4999 24.106L49.7999 24.106L49.7999 23.806L49.4999 23.806ZM44.2799 23.806L44.2799 23.506L44.1628 23.506L44.0766 23.5853L44.2799 23.806ZM43.5959 24.436L43.3926 24.2153L43.2959 24.3045L43.2959 24.436L43.5959 24.436ZM43.5959 27.37L43.2959 27.37L43.2959 27.5015L43.3926 27.5907L43.5959 27.37ZM44.5139 24.562L44.5139 24.262L44.2139 24.262L44.2139 24.562L44.5139 24.562ZM49.4999 24.562L49.7999 24.562L49.7999 24.262L49.4999 24.262L49.4999 24.562ZM49.4999 26.326L49.6732 26.5709L49.7999 26.4812L49.7999 26.326L49.4999 26.326ZM48.3299 27.154L48.3299 27.454L48.4253 27.454L48.5032 27.3989L48.3299 27.154ZM44.5139 27.154L44.2139 27.154L44.2139 27.454L44.5139 27.454L44.5139 27.154ZM44.2799 28.3L48.4379 28.3L48.4379 27.7L44.2799 27.7L44.2799 28.3ZM48.6091 28.2464L49.6711 27.5084L49.3287 27.0156L48.2667 27.7536L48.6091 28.2464ZM49.1999 27.262L49.1999 27.334L49.7999 27.334L49.7999 27.262L49.1999 27.262ZM49.2084 27.4049L49.3704 28.0709L49.9534 27.9291L49.7914 27.2631L49.2084 27.4049ZM49.6619 28.3L50.4359 28.3L50.4359 27.7L49.6619 27.7L49.6619 28.3ZM50.7359 28L50.7359 21.448L50.1359 21.448L50.1359 28L50.7359 28ZM50.633 21.2219L49.931 20.6099L49.5367 21.0621L50.2387 21.6741L50.633 21.2219ZM49.7339 20.536L43.9199 20.536L43.9199 21.136L49.7339 21.136L49.7339 20.536ZM43.6199 20.836L43.6199 21.664L44.2199 21.664L44.2199 20.836L43.6199 20.836ZM43.9199 21.964L49.4999 21.964L49.4999 21.364L43.9199 21.364L43.9199 21.964ZM49.1999 21.664L49.1999 23.806L49.7999 23.806L49.7999 21.664L49.1999 21.664ZM49.4999 23.506L44.2799 23.506L44.2799 24.106L49.4999 24.106L49.4999 23.506ZM44.0766 23.5853L43.3926 24.2153L43.7991 24.6567L44.4831 24.0267L44.0766 23.5853ZM43.2959 24.436L43.2959 27.37L43.8959 27.37L43.8959 24.436L43.2959 24.436ZM43.3926 27.5907L44.0766 28.2207L44.4831 27.7793L43.7991 27.1493L43.3926 27.5907ZM44.5139 24.862L49.4999 24.862L49.4999 24.262L44.5139 24.262L44.5139 24.862ZM49.1999 24.562L49.1999 26.326L49.7999 26.326L49.7999 24.562L49.1999 24.562ZM49.3266 26.0811L48.1566 26.9091L48.5032 27.3989L49.6732 26.5709L49.3266 26.0811ZM48.3299 26.854L44.5139 26.854L44.5139 27.454L48.3299 27.454L48.3299 26.854ZM44.8139 27.154L44.8139 24.562L44.2139 24.562L44.2139 27.154L44.8139 27.154ZM56.3913 27.172L56.0913 27.172L56.0913 27.472L56.3913 27.472L56.3913 27.172ZM56.3913 18.424L56.6913 18.424L56.6913 18.3178L56.6244 18.2352L56.3913 18.424ZM56.0853 18.046L56.3184 17.8572L56.2284 17.746L56.0853 17.746L56.0853 18.046ZM55.4553 18.046L55.4553 17.746L55.1553 17.746L55.1553 18.046L55.4553 18.046ZM55.4553 27.388L55.1553 27.388L55.1553 27.5245L55.2581 27.6141L55.4553 27.388ZM56.1573 28L55.9601 28.2261L56.0449 28.3L56.1573 28.3L56.1573 28ZM59.4333 28L59.4333 28.3L59.7333 28.3L59.7333 28L59.4333 28ZM59.4333 27.172L59.7333 27.172L59.7333 26.872L59.4333 26.872L59.4333 27.172ZM56.6913 27.172L56.6913 18.424L56.0913 18.424L56.0913 27.172L56.6913 27.172ZM56.6244 18.2352L56.3184 17.8572L55.8521 18.2348L56.1581 18.6128L56.6244 18.2352ZM56.0853 17.746L55.4553 17.746L55.4553 18.346L56.0853 18.346L56.0853 17.746ZM55.1553 18.046L55.1553 27.388L55.7553 27.388L55.7553 18.046L55.1553 18.046ZM55.2581 27.6141L55.9601 28.2261L56.3544 27.7739L55.6524 27.1619L55.2581 27.6141ZM56.1573 28.3L59.4333 28.3L59.4333 27.7L56.1573 27.7L56.1573 28.3ZM59.7333 28L59.7333 27.172L59.1333 27.172L59.1333 28L59.7333 28ZM59.4333 26.872L56.3913 26.872L56.3913 27.472L59.4333 27.472L59.4333 26.872ZM65.2448 27.172L64.9448 27.172L64.9448 27.472L65.2448 27.472L65.2448 27.172ZM65.2448 18.424L65.5448 18.424L65.5448 18.3178L65.478 18.2352L65.2448 18.424ZM64.9388 18.046L65.172 17.8572L65.0819 17.746L64.9388 17.746L64.9388 18.046ZM64.3088 18.046L64.3088 17.746L64.0088 17.746L64.0088 18.046L64.3088 18.046ZM64.3088 27.388L64.0088 27.388L64.0088 27.5245L64.1116 27.6141L64.3088 27.388ZM65.0108 28L64.8136 28.2261L64.8984 28.3L65.0108 28.3L65.0108 28ZM68.2868 28L68.2868 28.3L68.5868 28.3L68.5868 28L68.2868 28ZM68.2868 27.172L68.5868 27.172L68.5868 26.872L68.2868 26.872L68.2868 27.172ZM65.5448 27.172L65.5448 18.424L64.9448 18.424L64.9448 27.172L65.5448 27.172ZM65.478 18.2352L65.172 17.8572L64.7056 18.2348L65.0116 18.6128L65.478 18.2352ZM64.9388 17.746L64.3088 17.746L64.3088 18.346L64.9388 18.346L64.9388 17.746ZM64.0088 18.046L64.0088 27.388L64.6088 27.388L64.6088 18.046L64.0088 18.046ZM64.1116 27.6141L64.8136 28.2261L65.2079 27.7739L64.5059 27.1619L64.1116 27.6141ZM65.0108 28.3L68.2868 28.3L68.2868 27.7L65.0108 27.7L65.0108 28.3ZM68.5868 28L68.5868 27.172L67.9868 27.172L67.9868 28L68.5868 28ZM68.2868 26.872L65.2448 26.872L65.2448 27.472L68.2868 27.472L68.2868 26.872ZM73.442 28L73.2388 28.2207L73.3249 28.3L73.442 28.3L73.442 28ZM77.6 28L77.6 28.3L77.694 28.3L77.7712 28.2464L77.6 28ZM78.662 27.262L78.962 27.262L78.962 26.6882L78.4908 27.0156L78.662 27.262ZM78.662 27.334L78.362 27.334L78.362 27.37L78.3705 27.4049L78.662 27.334ZM78.824 28L78.5325 28.0709L78.5882 28.3L78.824 28.3L78.824 28ZM79.598 28L79.598 28.3L79.898 28.3L79.898 28L79.598 28ZM79.598 21.448L79.898 21.448L79.898 21.3115L79.7951 21.2219L79.598 21.448ZM78.896 20.836L79.0931 20.6099L79.0084 20.536L78.896 20.536L78.896 20.836ZM73.082 20.836L73.082 20.536L72.782 20.536L72.782 20.836L73.082 20.836ZM73.082 21.664L72.782 21.664L72.782 21.964L73.082 21.964L73.082 21.664ZM78.662 21.664L78.962 21.664L78.962 21.364L78.662 21.364L78.662 21.664ZM78.662 23.806L78.662 24.106L78.962 24.106L78.962 23.806L78.662 23.806ZM73.442 23.806L73.442 23.506L73.3249 23.506L73.2388 23.5853L73.442 23.806ZM72.758 24.436L72.5548 24.2153L72.458 24.3045L72.458 24.436L72.758 24.436ZM72.758 27.37L72.458 27.37L72.458 27.5015L72.5548 27.5907L72.758 27.37ZM73.676 24.562L73.676 24.262L73.376 24.262L73.376 24.562L73.676 24.562ZM78.662 24.562L78.962 24.562L78.962 24.262L78.662 24.262L78.662 24.562ZM78.662 26.326L78.8353 26.5709L78.962 26.4812L78.962 26.326L78.662 26.326ZM77.492 27.154L77.492 27.454L77.5874 27.454L77.6653 27.3989L77.492 27.154ZM73.676 27.154L73.376 27.154L73.376 27.454L73.676 27.454L73.676 27.154ZM73.442 28.3L77.6 28.3L77.6 27.7L73.442 27.7L73.442 28.3ZM77.7712 28.2464L78.8332 27.5084L78.4908 27.0156L77.4288 27.7536L77.7712 28.2464ZM78.362 27.262L78.362 27.334L78.962 27.334L78.962 27.262L78.362 27.262ZM78.3705 27.4049L78.5325 28.0709L79.1155 27.9291L78.9535 27.2631L78.3705 27.4049ZM78.824 28.3L79.598 28.3L79.598 27.7L78.824 27.7L78.824 28.3ZM79.898 28L79.898 21.448L79.298 21.448L79.298 28L79.898 28ZM79.7951 21.2219L79.0931 20.6099L78.6989 21.0621L79.4009 21.6741L79.7951 21.2219ZM78.896 20.536L73.082 20.536L73.082 21.136L78.896 21.136L78.896 20.536ZM72.782 20.836L72.782 21.664L73.382 21.664L73.382 20.836L72.782 20.836ZM73.082 21.964L78.662 21.964L78.662 21.364L73.082 21.364L73.082 21.964ZM78.362 21.664L78.362 23.806L78.962 23.806L78.962 21.664L78.362 21.664ZM78.662 23.506L73.442 23.506L73.442 24.106L78.662 24.106L78.662 23.506ZM73.2388 23.5853L72.5548 24.2153L72.9612 24.6567L73.6452 24.0267L73.2388 23.5853ZM72.458 24.436L72.458 27.37L73.058 27.37L73.058 24.436L72.458 24.436ZM72.5548 27.5907L73.2388 28.2207L73.6452 27.7793L72.9612 27.1493L72.5548 27.5907ZM73.676 24.862L78.662 24.862L78.662 24.262L73.676 24.262L73.676 24.862ZM78.362 24.562L78.362 26.326L78.962 26.326L78.962 24.562L78.362 24.562ZM78.4887 26.0811L77.3187 26.9091L77.6653 27.3989L78.8353 26.5709L78.4887 26.0811ZM77.492 26.854L73.676 26.854L73.676 27.454L77.492 27.454L77.492 26.854ZM73.976 27.154L73.976 24.562L73.376 24.562L73.376 27.154L73.976 27.154ZM84.6174 27.388L84.3174 27.388L84.3174 27.5245L84.4202 27.6141L84.6174 27.388ZM85.3194 28L85.1222 28.2261L85.207 28.3L85.3194 28.3L85.3194 28ZM90.7554 28L90.7554 28.3L90.8678 28.3L90.9525 28.2261L90.7554 28ZM91.4574 27.388L91.6545 27.6141L91.7574 27.5245L91.7574 27.388L91.4574 27.388ZM91.4574 25.624L91.7574 25.624L91.7574 25.324L91.4574 25.324L91.4574 25.624ZM90.5394 25.624L90.5394 25.324L90.2394 25.324L90.2394 25.624L90.5394 25.624ZM90.5394 27.172L90.5394 27.472L90.8394 27.472L90.8394 27.172L90.5394 27.172ZM85.5534 27.172L85.2534 27.172L85.2534 27.472L85.5534 27.472L85.5534 27.172ZM85.5534 21.664L85.5534 21.364L85.2534 21.364L85.2534 21.664L85.5534 21.664ZM90.5394 21.664L90.8394 21.664L90.8394 21.364L90.5394 21.364L90.5394 21.664ZM90.5394 23.212L90.2394 23.212L90.2394 23.512L90.5394 23.512L90.5394 23.212ZM91.4574 23.212L91.4574 23.512L91.7574 23.512L91.7574 23.212L91.4574 23.212ZM91.4574 21.448L91.7574 21.448L91.7574 21.3115L91.6545 21.2219L91.4574 21.448ZM90.7554 20.836L90.9525 20.6099L90.8678 20.536L90.7554 20.536L90.7554 20.836ZM85.3194 20.836L85.3194 20.536L85.207 20.536L85.1222 20.6099L85.3194 20.836ZM84.6174 21.448L84.4202 21.2219L84.3174 21.3115L84.3174 21.448L84.6174 21.448ZM84.4202 27.6141L85.1222 28.2261L85.5165 27.7739L84.8145 27.1619L84.4202 27.6141ZM85.3194 28.3L90.7554 28.3L90.7554 27.7L85.3194 27.7L85.3194 28.3ZM90.9525 28.2261L91.6545 27.6141L91.2602 27.1619L90.5582 27.7739L90.9525 28.2261ZM91.7574 27.388L91.7574 25.624L91.1574 25.624L91.1574 27.388L91.7574 27.388ZM91.4574 25.324L90.5394 25.324L90.5394 25.924L91.4574 25.924L91.4574 25.324ZM90.2394 25.624L90.2394 27.172L90.8394 27.172L90.8394 25.624L90.2394 25.624ZM90.5394 26.872L85.5534 26.872L85.5534 27.472L90.5394 27.472L90.5394 26.872ZM85.8534 27.172L85.8534 21.664L85.2534 21.664L85.2534 27.172L85.8534 27.172ZM85.5534 21.964L90.5394 21.964L90.5394 21.364L85.5534 21.364L85.5534 21.964ZM90.2394 21.664L90.2394 23.212L90.8394 23.212L90.8394 21.664L90.2394 21.664ZM90.5394 23.512L91.4574 23.512L91.4574 22.912L90.5394 22.912L90.5394 23.512ZM91.7574 23.212L91.7574 21.448L91.1574 21.448L91.1574 23.212L91.7574 23.212ZM91.6545 21.2219L90.9525 20.6099L90.5582 21.0621L91.2602 21.6741L91.6545 21.2219ZM90.7554 20.536L85.3194 20.536L85.3194 21.136L90.7554 21.136L90.7554 20.536ZM85.1222 20.6099L84.4202 21.2219L84.8145 21.6741L85.5165 21.0621L85.1222 20.6099ZM84.3174 21.448L84.3174 27.388L84.9174 27.388L84.9174 21.448L84.3174 21.448ZM103.299 24.292L103.489 24.5239L103.599 24.4339L103.599 24.292L103.299 24.292ZM103.299 21.448L103.599 21.448L103.599 21.3115L103.496 21.2219L103.299 21.448ZM102.597 20.836L102.794 20.6099L102.709 20.536L102.597 20.536L102.597 20.836ZM97.1787 20.836L97.1787 20.536L97.0663 20.536L96.9816 20.6099L97.1787 20.836ZM96.4767 21.448L96.2796 21.2219L96.1767 21.3115L96.1767 21.448L96.4767 21.448ZM96.4767 26.47L96.1767 26.47L96.1767 26.5983L96.2695 26.687L96.4767 26.47ZM98.0787 28L97.8715 28.217L97.9585 28.3L98.0787 28.3L98.0787 28ZM102.903 28L102.903 28.3L103.203 28.3L103.203 28L102.903 28ZM102.903 27.172L103.203 27.172L103.203 26.872L102.903 26.872L102.903 27.172ZM98.4747 27.172L98.2626 27.3841L98.3505 27.472L98.4747 27.472L98.4747 27.172ZM97.3767 26.074L97.0767 26.074L97.0767 26.1983L97.1646 26.2861L97.3767 26.074ZM97.3767 24.868L97.3767 24.568L97.0767 24.568L97.0767 24.868L97.3767 24.868ZM102.597 24.868L102.597 25.168L102.704 25.168L102.787 25.0999L102.597 24.868ZM102.363 24.13L102.363 24.43L102.663 24.43L102.663 24.13L102.363 24.13ZM97.4127 24.13L97.1127 24.13L97.1127 24.43L97.4127 24.43L97.4127 24.13ZM97.4127 21.664L97.4127 21.364L97.1127 21.364L97.1127 21.664L97.4127 21.664ZM102.363 21.664L102.663 21.664L102.663 21.364L102.363 21.364L102.363 21.664ZM103.599 24.292L103.599 21.448L102.999 21.448L102.999 24.292L103.599 24.292ZM103.496 21.2219L102.794 20.6099L102.4 21.0621L103.102 21.6741L103.496 21.2219ZM102.597 20.536L97.1787 20.536L97.1787 21.136L102.597 21.136L102.597 20.536ZM96.9816 20.6099L96.2796 21.2219L96.6739 21.6741L97.3759 21.0621L96.9816 20.6099ZM96.1767 21.448L96.1767 26.47L96.7767 26.47L96.7767 21.448L96.1767 21.448ZM96.2695 26.687L97.8715 28.217L98.2859 27.7831L96.6839 26.2531L96.2695 26.687ZM98.0787 28.3L102.903 28.3L102.903 27.7L98.0787 27.7L98.0787 28.3ZM103.203 28L103.203 27.172L102.603 27.172L102.603 28L103.203 28ZM102.903 26.872L98.4747 26.872L98.4747 27.472L102.903 27.472L102.903 26.872ZM98.6869 26.9599L97.5889 25.8619L97.1646 26.2861L98.2626 27.3841L98.6869 26.9599ZM97.6767 26.074L97.6767 24.868L97.0767 24.868L97.0767 26.074L97.6767 26.074ZM97.3767 25.168L102.597 25.168L102.597 24.568L97.3767 24.568L97.3767 25.168ZM102.787 25.0999L103.489 24.5239L103.108 24.0601L102.406 24.6361L102.787 25.0999ZM102.363 23.83L97.4127 23.83L97.4127 24.43L102.363 24.43L102.363 23.83ZM97.7127 24.13L97.7127 21.664L97.1127 21.664L97.1127 24.13L97.7127 24.13ZM97.4127 21.964L102.363 21.964L102.363 21.364L97.4127 21.364L97.4127 21.964ZM102.063 21.664L102.063 24.13L102.663 24.13L102.663 21.664L102.063 21.664ZM115.467 27.388L115.167 27.388L115.167 27.5245L115.27 27.6141L115.467 27.388ZM116.169 28L115.972 28.2261L116.057 28.3L116.169 28.3L116.169 28ZM121.605 28L121.605 28.3L121.717 28.3L121.802 28.2261L121.605 28ZM122.307 27.388L122.504 27.6141L122.607 27.5245L122.607 27.388L122.307 27.388ZM122.307 25.624L122.607 25.624L122.607 25.324L122.307 25.324L122.307 25.624ZM121.389 25.624L121.389 25.324L121.089 25.324L121.089 25.624L121.389 25.624ZM121.389 27.172L121.389 27.472L121.689 27.472L121.689 27.172L121.389 27.172ZM116.403 27.172L116.103 27.172L116.103 27.472L116.403 27.472L116.403 27.172ZM116.403 21.664L116.403 21.364L116.103 21.364L116.103 21.664L116.403 21.664ZM121.389 21.664L121.689 21.664L121.689 21.364L121.389 21.364L121.389 21.664ZM121.389 23.212L121.089 23.212L121.089 23.512L121.389 23.512L121.389 23.212ZM122.307 23.212L122.307 23.512L122.607 23.512L122.607 23.212L122.307 23.212ZM122.307 21.448L122.607 21.448L122.607 21.3115L122.504 21.2219L122.307 21.448ZM121.605 20.836L121.802 20.6099L121.717 20.536L121.605 20.536L121.605 20.836ZM116.169 20.836L116.169 20.536L116.057 20.536L115.972 20.6099L116.169 20.836ZM115.467 21.448L115.27 21.2219L115.167 21.3115L115.167 21.448L115.467 21.448ZM115.27 27.6141L115.972 28.2261L116.366 27.7739L115.664 27.1619L115.27 27.6141ZM116.169 28.3L121.605 28.3L121.605 27.7L116.169 27.7L116.169 28.3ZM121.802 28.2261L122.504 27.6141L122.11 27.1619L121.408 27.7739L121.802 28.2261ZM122.607 27.388L122.607 25.624L122.007 25.624L122.007 27.388L122.607 27.388ZM122.307 25.324L121.389 25.324L121.389 25.924L122.307 25.924L122.307 25.324ZM121.089 25.624L121.089 27.172L121.689 27.172L121.689 25.624L121.089 25.624ZM121.389 26.872L116.403 26.872L116.403 27.472L121.389 27.472L121.389 26.872ZM116.703 27.172L116.703 21.664L116.103 21.664L116.103 27.172L116.703 27.172ZM116.403 21.964L121.389 21.964L121.389 21.364L116.403 21.364L116.403 21.964ZM121.089 21.664L121.089 23.212L121.689 23.212L121.689 21.664L121.089 21.664ZM121.389 23.512L122.307 23.512L122.307 22.912L121.389 22.912L121.389 23.512ZM122.607 23.212L122.607 21.448L122.007 21.448L122.007 23.212L122.607 23.212ZM122.504 21.2219L121.802 20.6099L121.408 21.0621L122.11 21.6741L122.504 21.2219ZM121.605 20.536L116.169 20.536L116.169 21.136L121.605 21.136L121.605 20.536ZM115.972 20.6099L115.27 21.2219L115.664 21.6741L116.366 21.0621L115.972 20.6099ZM115.167 21.448L115.167 27.388L115.767 27.388L115.767 21.448L115.167 21.448ZM128.028 28L127.831 28.2261L127.916 28.3L128.028 28.3L128.028 28ZM133.446 28L133.446 28.3L133.559 28.3L133.643 28.2261L133.446 28ZM134.148 27.388L134.345 27.6141L134.448 27.5245L134.448 27.388L134.148 27.388ZM134.148 21.448L134.448 21.448L134.448 21.3115L134.345 21.2219L134.148 21.448ZM133.446 20.836L133.643 20.6099L133.559 20.536L133.446 20.536L133.446 20.836ZM128.028 20.836L128.028 20.536L127.916 20.536L127.831 20.6099L128.028 20.836ZM127.326 21.448L127.129 21.2219L127.026 21.3115L127.026 21.448L127.326 21.448ZM127.326 27.388L127.026 27.388L127.026 27.5245L127.129 27.6141L127.326 27.388ZM128.262 21.664L128.262 21.364L127.962 21.364L127.962 21.664L128.262 21.664ZM133.212 21.664L133.512 21.664L133.512 21.364L133.212 21.364L133.212 21.664ZM133.212 27.172L133.212 27.472L133.512 27.472L133.512 27.172L133.212 27.172ZM128.262 27.172L127.962 27.172L127.962 27.472L128.262 27.472L128.262 27.172ZM128.028 28.3L133.446 28.3L133.446 27.7L128.028 27.7L128.028 28.3ZM133.643 28.2261L134.345 27.6141L133.951 27.1619L133.249 27.7739L133.643 28.2261ZM134.448 27.388L134.448 21.448L133.848 21.448L133.848 27.388L134.448 27.388ZM134.345 21.2219L133.643 20.6099L133.249 21.0621L133.951 21.6741L134.345 21.2219ZM133.446 20.536L128.028 20.536L128.028 21.136L133.446 21.136L133.446 20.536ZM127.831 20.6099L127.129 21.2219L127.523 21.6741L128.225 21.0621L127.831 20.6099ZM127.026 21.448L127.026 27.388L127.626 27.388L127.626 21.448L127.026 21.448ZM127.129 27.6141L127.831 28.2261L128.225 27.7739L127.523 27.1619L127.129 27.6141ZM128.262 21.964L133.212 21.964L133.212 21.364L128.262 21.364L128.262 21.964ZM132.912 21.664L132.912 27.172L133.512 27.172L133.512 21.664L132.912 21.664ZM133.212 26.872L128.262 26.872L128.262 27.472L133.212 27.472L133.212 26.872ZM128.562 27.172L128.562 21.664L127.962 21.664L127.962 27.172L128.562 27.172ZM139.168 28L138.868 28L138.868 28.3L139.168 28.3L139.168 28ZM140.104 28L140.104 28.3L140.404 28.3L140.404 28L140.104 28ZM140.104 22.69L139.913 22.4587L139.804 22.5487L139.804 22.69L140.104 22.69ZM141.346 21.664L141.346 21.364L141.238 21.364L141.155 21.4327L141.346 21.664ZM142.966 21.664L142.966 21.964L143.266 21.964L143.266 21.664L142.966 21.664ZM142.966 20.836L143.266 20.836L143.266 20.536L142.966 20.536L142.966 20.836ZM141.22 20.836L141.22 20.536L141.113 20.536L141.03 20.6043L141.22 20.836ZM140.104 21.754L139.804 21.754L139.804 22.3892L140.295 21.9857L140.104 21.754ZM140.104 21.196L140.404 21.196L140.404 21.0908L140.338 21.0086L140.104 21.196ZM139.816 20.836L140.05 20.6486L139.96 20.536L139.816 20.536L139.816 20.836ZM139.168 20.836L139.168 20.536L138.868 20.536L138.868 20.836L139.168 20.836ZM139.168 28.3L140.104 28.3L140.104 27.7L139.168 27.7L139.168 28.3ZM140.404 28L140.404 22.69L139.804 22.69L139.804 28L140.404 28ZM140.295 22.9213L141.537 21.8953L141.155 21.4327L139.913 22.4587L140.295 22.9213ZM141.346 21.964L142.966 21.964L142.966 21.364L141.346 21.364L141.346 21.964ZM143.266 21.664L143.266 20.836L142.666 20.836L142.666 21.664L143.266 21.664ZM142.966 20.536L141.22 20.536L141.22 21.136L142.966 21.136L142.966 20.536ZM141.03 20.6043L139.914 21.5223L140.295 21.9857L141.411 21.0677L141.03 20.6043ZM140.404 21.754L140.404 21.196L139.804 21.196L139.804 21.754L140.404 21.754ZM140.338 21.0086L140.05 20.6486L139.582 21.0234L139.87 21.3834L140.338 21.0086ZM139.816 20.536L139.168 20.536L139.168 21.136L139.816 21.136L139.816 20.536ZM138.868 20.836L138.868 28L139.468 28L139.468 20.836L138.868 20.836ZM147.688 20.836L147.688 20.536L147.388 20.536L147.388 20.836L147.688 20.836ZM147.688 30.646L147.388 30.646L147.388 30.946L147.688 30.946L147.688 30.646ZM148.336 30.646L148.336 30.946L148.48 30.946L148.57 30.8334L148.336 30.646ZM148.624 30.286L148.858 30.4734L148.924 30.3912L148.924 30.286L148.624 30.286ZM148.624 27.226L148.797 26.9808L148.324 26.6475L148.324 27.226L148.624 27.226ZM149.722 28L149.549 28.2452L149.627 28.3L149.722 28.3L149.722 28ZM153.808 28L153.808 28.3L153.92 28.3L154.005 28.2261L153.808 28ZM154.51 27.388L154.707 27.6141L154.81 27.5245L154.81 27.388L154.51 27.388ZM154.51 21.448L154.81 21.448L154.81 21.3115L154.707 21.2219L154.51 21.448ZM153.808 20.836L154.005 20.6099L153.92 20.536L153.808 20.536L153.808 20.836ZM148.624 26.29L148.324 26.29L148.324 26.4449L148.45 26.5346L148.624 26.29ZM148.624 21.682L148.624 21.382L148.324 21.382L148.324 21.682L148.624 21.682ZM153.574 21.682L153.874 21.682L153.874 21.382L153.574 21.382L153.574 21.682ZM153.574 27.172L153.574 27.472L153.874 27.472L153.874 27.172L153.574 27.172ZM149.866 27.172L149.692 27.4166L149.77 27.472L149.866 27.472L149.866 27.172ZM147.388 20.836L147.388 30.646L147.988 30.646L147.988 20.836L147.388 20.836ZM147.688 30.946L148.336 30.946L148.336 30.346L147.688 30.346L147.688 30.946ZM148.57 30.8334L148.858 30.4734L148.389 30.0986L148.101 30.4586L148.57 30.8334ZM148.924 30.286L148.924 27.226L148.324 27.226L148.324 30.286L148.924 30.286ZM148.451 27.4712L149.549 28.2452L149.895 27.7548L148.797 26.9808L148.451 27.4712ZM149.722 28.3L153.808 28.3L153.808 27.7L149.722 27.7L149.722 28.3ZM154.005 28.2261L154.707 27.6141L154.313 27.1619L153.611 27.7739L154.005 28.2261ZM154.81 27.388L154.81 21.448L154.21 21.448L154.21 27.388L154.81 27.388ZM154.707 21.2219L154.005 20.6099L153.611 21.0621L154.313 21.6741L154.707 21.2219ZM153.808 20.536L147.688 20.536L147.688 21.136L153.808 21.136L153.808 20.536ZM148.924 26.29L148.924 21.682L148.324 21.682L148.324 26.29L148.924 26.29ZM148.624 21.982L153.574 21.982L153.574 21.382L148.624 21.382L148.624 21.982ZM153.274 21.682L153.274 27.172L153.874 27.172L153.874 21.682L153.274 21.682ZM153.574 26.872L149.866 26.872L149.866 27.472L153.574 27.472L153.574 26.872ZM150.039 26.9274L148.797 26.0454L148.45 26.5346L149.692 27.4166L150.039 26.9274ZM160.465 28L160.465 28.3L160.765 28.3L160.765 28L160.465 28ZM160.465 26.884L160.765 26.884L160.765 26.7827L160.704 26.7022L160.465 26.884ZM160.177 26.506L160.416 26.3242L160.326 26.206L160.177 26.206L160.177 26.506ZM159.529 26.506L159.529 26.206L159.229 26.206L159.229 26.506L159.529 26.506ZM159.529 28L159.229 28L159.229 28.3L159.529 28.3L159.529 28ZM160.765 28L160.765 26.884L160.165 26.884L160.165 28L160.765 28ZM160.704 26.7022L160.416 26.3242L159.939 26.6878L160.227 27.0658L160.704 26.7022ZM160.177 26.206L159.529 26.206L159.529 26.806L160.177 26.806L160.177 26.206ZM159.229 26.506L159.229 28L159.829 28L159.829 26.506L159.229 26.506ZM159.529 28.3L160.465 28.3L160.465 27.7L159.529 27.7L159.529 28.3Z" fill="white"/>
</svg>
